<?xml version="1.0" encoding="UTF-8" standalone="no"?>
<svg
   xmlns:dc="http://purl.org/dc/elements/1.1/"
   xmlns:cc="http://creativecommons.org/ns#"
   xmlns:rdf="http://www.w3.org/1999/02/22-rdf-syntax-ns#"
   xmlns:svg="http://www.w3.org/2000/svg"
   xmlns="http://www.w3.org/2000/svg"
   xmlns:sodipodi="http://sodipodi.sourceforge.net/DTD/sodipodi-0.dtd"
   xmlns:inkscape="http://www.inkscape.org/namespaces/inkscape"
   version="1.1"
   id="svg2"
   xml:space="preserve"
   width="3332.6667"
   height="2218.1333"
   viewBox="0 0 3332.6667 2218.1333"
   sodipodi:docname="404.eps"><metadata
     id="metadata8"><rdf:RDF><cc:Work
         rdf:about=""><dc:format>image/svg+xml</dc:format><dc:type
           rdf:resource="http://purl.org/dc/dcmitype/StillImage" /></cc:Work></rdf:RDF></metadata><defs
     id="defs6" /><sodipodi:namedview
     pagecolor="#ffffff"
     bordercolor="#666666"
     borderopacity="1"
     objecttolerance="10"
     gridtolerance="10"
     guidetolerance="10"
     inkscape:pageopacity="0"
     inkscape:pageshadow="2"
     inkscape:window-width="640"
     inkscape:window-height="480"
     id="namedview4" /><g
     id="g10"
     inkscape:groupmode="layer"
     inkscape:label="ink_ext_XXXXXX"
     transform="matrix(1.3333333,0,0,-1.3333333,0,2218.1333)"><g
       id="g12"
       transform="scale(0.1)"><path
         d="M -0.00390625,0 H 24995 V 16636 H -0.00390625 V 0"
         style="fill:#ffffff;fill-opacity:1;fill-rule:nonzero;stroke:none"
         id="path14" /><path
         d="M 10692.6,6924.95 C 10692.6,5327.5 9585.72,3988.3 8097.02,3633 c -253,-60.5 -517.1,-92.5 -788.7,-92.5 -1869.2,0 -3384.4,1515.3 -3384.4,3384.45 0,1256.89 685.2,2353.79 1702.4,2937.5 369.7,212.25 783.3,356.45 1223.9,416.05 -136.8,-132.3 -208.1,-175.1 -208.1,-175.1 l 958.7,-550.75 c 0,0 2.5,-2.4 7.2,-7.2 -22.8,103.69 -49.8,170.5 -80.7,203.4 l 1649.1,-420.6 1209.28,-1483.2 93.7,264.6 c 137.9,-368.7 213.2,-767.9 213.2,-1184.7"
         style="fill:#ffe9e9;fill-opacity:1;fill-rule:nonzero;stroke:none"
         id="path16" /><path
         d="m 6766.74,6668.63 c 11.54,2.25 23.21,4.42 34.71,6.43 90.1,15.77 178.11,20.94 263.53,-24.49 61.37,-32.57 111.05,-91.07 122,-159.57 29.25,-185.2 -131.95,-296.3 -289.66,-341.5 -137.72,-39.4 -285.02,-40.5 -424.74,-11.2 -115.39,24.1 -284.03,70.6 -350.93,178 -189.88,305.2 505.55,324.87 645.09,352.33 z m -981.6,1544.4 c -9.79,32.3 -2.27,72.69 26.57,90.27 4.21,2.54 8.8,4.53 13.56,5.91 48.33,14 121.2,-29.81 158.4,-54.72 56.91,-38 96.62,-103.81 116.11,-168.46 5.47,-17.74 9.2,-38.18 -0.19,-54.3 -7.13,-12.17 -20.51,-19.45 -34.03,-23.59 -43.26,-13.3 -91.07,0.86 -128.69,26.1 -37.52,25.27 -66.89,60.69 -96.55,94.82 -22.11,25.56 -45.28,51.68 -55.18,83.97 z M 5485.42,6873.78 C 5583.3,6467.5 5877.31,5741.8 6720.79,5858.4 c 555.76,76.9 827.03,285 958.91,481.5 50.92,75.6 81.02,149.5 98.65,213.4 32.3,116.76 23.07,200.19 23.07,200.19 0,0 959.65,288.92 43.78,1517.27 -24.08,32.34 -48.99,63.35 -74.71,93.02 -283.91,328.41 -657.89,495.75 -1042.61,568.94 98.96,-113.01 281.54,-360.06 215.75,-582.62 -81,-273.97 -438.36,185.6 -451.02,616.07 -212.36,20.75 -423.04,17.06 -618.81,0.23 41.63,-81.19 101.44,-223.22 114.11,-387.91 0,0 -166.99,245.52 -352.91,360.37 -444.4,-63.91 -764.94,-178.94 -764.94,-178.94 508.2,-98.38 641.89,-533.77 653.07,-929.2 0,0 462.13,-323.79 585.1,-672.56 0,0 -302.85,208.04 -628.42,157.02 -1.02,-5.56 -2.11,-10.93 -3.09,-16.26 -26.84,-140.89 -24.84,-285.83 8.7,-425.14"
         style="fill:#00ccbe;fill-opacity:1;fill-rule:nonzero;stroke:none"
         id="path18" /><path
         d="m 6300.94,8103.55 c 71.49,-60.32 138.54,-125.58 204.33,-191.87 65.59,-66.53 129.27,-134.88 191.52,-204.46 124.11,-139.54 242.23,-284.19 355.39,-432.48 225.99,-296.89 432.85,-607.75 622.34,-928.44 95.68,-159.8 185.05,-323.3 272.74,-487.5 l 64.22,-123.9 c 10.62,-20.7 21.58,-41.2 31.92,-62.1 l 30.97,-62.5 61.93,-125.1 59.72,-126.1 c 158.59,-336.6 302.73,-679.8 433.35,-1027.8 l 176.97,70.7 c -147.16,346.7 -307.69,687.5 -482.35,1020.7 l -65.72,124.9 -67.92,123.6 -33.94,61.8 c -11.32,20.6 -23.28,40.9 -34.89,61.3 l -70.12,122.4 c -95.55,161.9 -192.66,322.9 -295.95,479.9 -204.71,315.09 -426.26,619.17 -666.02,907.83 -120.03,144.19 -244.8,284.38 -375.21,419.02 -65.39,67.13 -132.13,132.93 -200.65,196.77 -68.72,63.6 -138.62,126.08 -212.63,183.33"
         style="fill:#000061;fill-opacity:1;fill-rule:nonzero;stroke:none"
         id="path20" /><path
         d="m 6766.74,6668.63 c 11.54,2.25 23.21,4.42 34.71,6.43 90.1,15.77 178.11,20.94 263.53,-24.49 61.37,-32.57 111.05,-91.07 122,-159.57 29.25,-185.2 -131.95,-296.3 -289.66,-341.5 -137.72,-39.4 -285.02,-40.5 -424.74,-11.2 -115.39,24.1 -284.03,70.6 -350.93,178 -189.88,305.2 505.55,324.87 645.09,352.33 z m -666.96,1417.4 c 5.47,-17.74 9.2,-38.18 -0.19,-54.3 -7.13,-12.17 -20.51,-19.45 -34.03,-23.59 -43.26,-13.3 -91.07,0.86 -128.69,26.1 -37.52,25.27 -66.89,60.69 -96.55,94.82 -22.11,25.56 -45.28,51.68 -55.18,83.97 -9.79,32.3 -2.27,72.69 26.57,90.27 4.21,2.54 8.8,4.53 13.56,5.91 48.33,14 121.2,-29.81 158.4,-54.72 56.91,-38 96.62,-103.81 116.11,-168.46 z M 5485.42,6873.78 C 5583.3,6467.5 5877.31,5741.8 6720.79,5858.4 c 555.76,76.9 827.03,285 958.91,481.5 -1529.41,2627.06 -2809.64,2420.02 -2809.64,2420.02 508.2,-98.38 641.89,-533.77 653.07,-929.2 0,0 462.13,-323.79 585.1,-672.56 0,0 -302.85,208.04 -628.42,157.02 -1.02,-5.56 -2.11,-10.93 -3.09,-16.26 -26.84,-140.89 -24.84,-285.83 8.7,-425.14"
         style="fill:#000061;fill-opacity:1;fill-rule:nonzero;stroke:none"
         id="path22" /><path
         d="m 20697.4,7531.7 c 0,-55.5 -1,-110.7 -3.4,-165.7 -24.9,-606.5 -186.2,-1177.8 -453.8,-1683.7 v 816.5 L 18673,4077.8 c -194.8,-108.8 -399.7,-201.6 -612.8,-276.5 -272.2,-95.6 -558.2,-162.2 -853.8,-195.9 -147.8,-16.9 -297.9,-25.5 -450,-25.5 -8.1,0 -16.1,0 -24,0.1 133.6,349.8 205,757.6 205,1185.5 0,76.8 -2.2,152.9 -6.8,228.2 -30.7,508.9 -164.4,978.3 -383.6,1340.3 -230.9,381.11 -526.3,590.9 -831.4,590.9 -305.3,0 -600.6,-209.79 -831.5,-590.9 -191.6,-316.2 -317.6,-714.5 -366.9,-1149.5 -874.4,493.4 -1464.5,1431.1 -1464.5,2506.6 0,885.9 399.7,1963 1028.9,2742.6 587.3,544.7 1340.3,912.2 2174.5,1018.2 163.8,20.8 330.9,31.5 500.3,31.5 2176.6,0 3941,-1769.2 3941,-3951.7"
         style="fill:#ffe9e9;fill-opacity:1;fill-rule:nonzero;stroke:none"
         id="path24" /><path
         d="m 6005.72,5555.7 c 25.49,-40.2 45.41,-85.4 47.65,-132.8 1.66,-36 -7.14,-72.3 -25,-103.5 -5.22,-9.3 -11.71,-18.5 -21.27,-23.1 -46.64,-22.6 -123.16,74.6 -153.74,100 -32.77,27.1 -73.85,48.6 -102.78,79.7 -60.39,65 -19.58,218.5 75.82,228.7 28.86,3.1 55.61,-14.4 77.85,-32.9 39.58,-33.3 74,-72.5 101.47,-116.1 z m 107.4,-1747.5 c -232.97,-318.1 -528.74,-310.8 -642.3,-158 -68.01,91.7 27.32,191.1 114.53,255.9 73.23,54.4 139.26,118.1 193.51,191.5 378.76,513 552.18,8.3 334.26,-289.4 z m 472.54,2495.6 c 96.3,-263 213.59,-677.5 -25.77,-627.8 -260.44,54.1 -309.34,492.7 -317.46,709.1 -186.37,24.8 -380.97,23 -571.21,-0.2 -95.27,-11.5 -189.45,-28.4 -280.92,-49.9 -122.44,-28.8 -245.4,-77.1 -368.25,-136.3 195.14,-74.5 306.59,-213.5 367.25,-290 79.83,-100.6 21.01,-417.6 -249.06,-102.2 -135.28,158.1 -259.03,234.1 -348.79,270.5 -488.46,-276.1 -971.26,-638.3 -1416.94,-538.8 -0.14,0 -0.22,0 -0.22,0 0,0 248.31,-148.7 499.96,-411.7 72.56,37.8 190.94,77.6 340.65,50.3 241.55,-44.2 277.58,-218 -100.57,-344.7 104.78,-153.7 193.15,-329.2 241.41,-523 0.48,-2.1 1.03,-4.2 1.66,-6.3 148.9,33.5 514.57,93.2 809.36,84.5 0,0 -451.23,-188.6 -707.72,-343.9 277.41,-525.2 944.58,-940.5 1502.99,-650.3 340.27,176.8 513.41,523.5 664.56,857.1 27.79,61.5 54.67,123.1 80.85,185.2 16.71,39.5 50.12,185.4 83.95,205.5 0,0 1.45,0.9 4.06,2.5 54.16,33.6 632.31,405.8 501.77,940.8 -12.83,52.9 -32.62,107.4 -60.55,163.3 -139.75,279.7 -374.34,457.5 -651.01,556.3"
         style="fill:#00ccbe;fill-opacity:1;fill-rule:nonzero;stroke:none"
         id="path26" /><path
         d="m 5906.32,5365.1 c 29.53,-37.2 54.03,-80.1 61.18,-127.1 5.38,-35.6 0.41,-72.6 -14.12,-105.6 -4.23,-9.7 -9.73,-19.5 -18.76,-25.1 -44.04,-27.3 -130.24,61.4 -163.29,83.5 -35.4,23.5 -78.49,40.6 -110.49,68.6 -66.81,58.4 -42.16,215.2 51.67,235.4 28.38,6 56.8,-8.6 80.84,-24.7 42.82,-29 81.13,-64.4 112.97,-105 z m 288.21,-1726.9 c -198.7,-340.6 -493.63,-364 -622.43,-223.8 -77.17,84.1 7.33,193 87.35,266.5 67.18,61.6 126.24,131.9 172.58,210.5 323.47,549.6 548.35,65.5 362.5,-253.2 z m 1027.76,1592.4 c 10.8,93.9 2.52,193.7 -34.41,297 -18.24,51.2 -43.58,103.4 -77.15,156 -168.03,263.7 -419.81,416.2 -705.25,485.8 123.08,-251.6 282.75,-651.6 39.53,-627 -264.66,26.7 -358.81,457.9 -389.34,672.2 -187.95,5.4 -381.3,-16.6 -568.1,-59.4 -93.56,-21.4 -185.48,-48 -274.23,-78.9 -118.79,-41.3 -236.07,-102.1 -352.12,-173.7 201.83,-53.9 327.09,-180.5 395.37,-250.3 89.85,-91.8 64.24,-413.2 -237.1,-127.5 -150.96,143.1 -281.93,205.9 -374.99,232.8 -457.16,-325.3 -899.76,-735.6 -1353.35,-683 -0.15,0 -0.23,0.1 -0.23,0.1 0,0 262.4,-122.2 540,-357.7 68.24,45.2 181.85,97 333.58,85.4 244.83,-18.8 298.71,-188 -64.24,-353.3 120.16,-142 226.27,-307.3 294.38,-495.1 0.7,-2.1 1.47,-4 2.32,-6.1 144.61,48.8 502.11,146.1 796.21,168.1 0,0 -429.22,-234.4 -668.2,-415.5 330.42,-493.6 1037.1,-837.4 1562.37,-490.8 177.9,117.4 299,281.6 391.35,464 z"
         style="fill:none;stroke:#000061;stroke-width:30;stroke-linecap:butt;stroke-linejoin:miter;stroke-miterlimit:10;stroke-dasharray:none;stroke-opacity:1"
         id="path28" /><path
         d="m 4870.06,5232.2 c 167.34,-27.4 333.51,-62 499.11,-99.1 165.58,-37.2 330.33,-78.3 494.39,-122.3 328.15,-87.9 652.86,-189.3 973.9,-302.4 160.27,-57.2 319.65,-117.2 477.86,-180.4 l 118.26,-48.5 59.11,-24.4 58.73,-25.2 117.44,-50.7 116.68,-52.6 c 39.03,-17.2 77.61,-35.4 116.19,-53.7 38.56,-18.3 77.32,-36.2 115.74,-54.8 76.41,-38.1 153.6,-74.9 229.15,-114.9 l 113.79,-59.1 112.74,-61.3 56.33,-30.8 55.75,-31.9 111.54,-63.7 -100.26,-162.3 -106.2,67.4 -53.12,33.8 -53.77,32.7 -107.73,65.4 -108.98,63.3 c -72.37,42.8 -146.55,82.4 -219.99,123.5 -36.96,20.1 -74.29,39.5 -111.42,59.3 -37.15,19.8 -74.35,39.5 -112.01,58.3 l -112.64,57.2 -113.58,55.5 -56.84,27.7 -57.27,26.8 -114.65,53.4 c -153.51,69.9 -308.55,136.7 -464.79,200.9 -313,127 -630.92,243 -953.41,345.7 -161.22,51.5 -323.41,100.1 -486.73,145 -163.35,44.6 -327.49,87 -493.32,122.2"
         style="fill:#000061;fill-opacity:1;fill-rule:nonzero;stroke:none"
         id="path30" /><path
         d="m 12717.7,7911.45 124.6,161.11 c 38.7,50.14 62.1,110.5 67.2,173.69 l 197.2,1060.02 c 0,0 -348.2,560.62 -625.1,568.83 l -259.2,-626.18 495.3,-1337.47"
         style="fill:#000061;fill-opacity:1;fill-rule:nonzero;stroke:none"
         id="path32" /><path
         d="m 7524.19,7845.03 c 0,0 -276.99,507.6 -239.17,1187.47 37.82,679.88 121.53,651.28 242.3,716.3 l 329.67,-270.98 -105.51,-1449.1 -227.29,-183.69"
         style="fill:#000061;fill-opacity:1;fill-rule:nonzero;stroke:none"
         id="path34" /><path
         d="m 8326.07,11899.3 c 0,0 -157.88,-328.4 195.11,-605.3 352.99,-276.9 474.74,420.8 474.74,420.8 0,0 -467.87,617.6 -669.85,184.5"
         style="fill:#000061;fill-opacity:1;fill-rule:nonzero;stroke:none"
         id="path36" /><path
         d="m 8661.09,11359.7 c 0,0 -355.7,271.1 -489.19,-51.4 -133.49,-322.6 554.46,-496.5 644.86,-269 90.38,227.6 -155.67,320.4 -155.67,320.4"
         style="fill:#ffb2a8;fill-opacity:1;fill-rule:nonzero;stroke:none"
         id="path38" /><path
         d="m 10438.7,11789.8 c 0,0 90.1,369.4 376.5,259.7 286.4,-109.7 -4.9,-653.7 -276,-688 -271.2,-34.3 -100.5,428.3 -100.5,428.3"
         style="fill:#ffb2a8;fill-opacity:1;fill-rule:nonzero;stroke:none"
         id="path40" /><path
         d="m 10612.6,9298.71 -383.8,-775.26 -690.41,664.31 c -43.81,42.15 -70.37,99.07 -74.54,159.72 l -39.63,577.77 -22.5,328.25 877.48,285.2 139.4,-424.4 207.1,-630.52 c 20.1,-61.03 15.4,-127.5 -13.1,-185.07"
         style="fill:#ffb2a8;fill-opacity:1;fill-rule:nonzero;stroke:none"
         id="path42" /><path
         d="m 12325.7,9650.58 1159.2,428.72 1401.1,1278.4 c 0,0 -39.9,400.9 168.1,508.1 0,0 83.1,227.1 112.4,529.9 3.8,39.4 39.4,68 78.7,63 v 0 c 53.3,-6.8 100.9,-37.4 128.2,-83.7 41,-69.8 82.8,-195.5 62.7,-408.3 l 140.6,176.1 172.8,-910.6 c 0,0 -156.5,-187.7 -541.8,-238.5 L 13827.8,9344.51 c -11.1,-13.21 -24.4,-24.38 -39.3,-33 l -1215.8,-702.13 -247,1041.2"
         style="fill:#ffb2a8;fill-opacity:1;fill-rule:nonzero;stroke:none"
         id="path44" /><path
         d="m 10418.6,10114.3 c -316.4,-401.85 -747.78,-298.35 -994.38,-189.05 l -22.5,328.25 877.48,285.2 139.4,-424.4"
         style="fill:#000061;fill-opacity:1;fill-rule:nonzero;stroke:none"
         id="path46" /><path
         d="m 10537.8,10868.2 c -74.6,-369.8 -279.6,-676.1 -711.15,-747.9 -446.4,-74.3 -734.5,124.1 -920.2,397.8 -104.1,153.6 -176,331 -225.5,497.2 -93.4,313.6 -106.9,587.4 -106.9,587.4 -0.2,73 11.4,141.8 32.6,206.4 215,651.9 1425.15,873.9 1649.25,658.9 70,-67.1 159.8,-269.5 225.9,-529.6 43.4,-170.5 76.4,-365.7 87.1,-563.9 9.2,-171.4 1.4,-344.9 -31.1,-506.3"
         style="fill:#ffb2a8;fill-opacity:1;fill-rule:nonzero;stroke:none"
         id="path48" /><path
         d="m 6850.22,10278.5 c -136.8,-132.3 -208.1,-175.1 -208.1,-175.1 l 958.7,-550.75 c 0,0 2.5,-2.4 7.2,-7.2 109,-108.5 1411.2,-1422.6 164.6,-1057.9 -27.3,8 -54.4,16.3 -81.4,25 -956.1,306.19 -1741.6,1022.2 -2064.9,1349.9 -29.8,30.15 -55.68,57.02 -77.41,79.99 -51.54,54.46 -73.96,130.26 -60.09,203.96 l 36.8,195.5 c 8.96,47.6 32.55,91.2 67.3,124.9 972.83,944.1 2349.5,1784.8 2349.5,1784.8 0,0 4.4,272.3 0,403.7 -4.5,131.3 77.1,162.9 77.1,162.9 l 170.1,24.2 572.2,-220 -189.6,-785.1 -476.64,39.4 C 7556.69,10996.1 7071.52,10492.8 6850.22,10278.5"
         style="fill:#ffb2a8;fill-opacity:1;fill-rule:nonzero;stroke:none"
         id="path50" /><path
         d="m 12188.2,7799.04 68.9,-566.99 L 10090,3765.1 c 0,0 -1275.98,-417.2 -2087.18,-495.5 0,0 38,134 94.2,363.4 182.8,746.8 558.5,2504.8 443.9,3939.74 l -1016.7,272.31 81.04,64.21 c 57.23,45.34 90.54,114.48 90.41,187.5 -0.27,149.45 -1.82,287.93 -4.45,415.79 -10.5,495.99 -39.1,833 -83.2,1032.9 -22.8,103.69 -49.8,170.5 -80.7,203.4 l 1649.1,-420.6 1209.28,-1483.2 93.7,264.6 481.6,1360 1549.3,413.16 c 0.1,-614.75 91.3,-1285.38 207.4,-1971.37 l -529.5,-112.4"
         style="fill:#ffb149;fill-opacity:1;fill-rule:nonzero;stroke:none"
         id="path52" /><path
         d="m 21394,10119.7 h -902.4 v 317.7 h 902.4 v -317.7"
         style="fill:#ffb149;fill-opacity:1;fill-rule:nonzero;stroke:none"
         id="path54" /><path
         d="m 20498,10126 h 889.6 v 305.1 H 20498 Z m 902.3,-12.7 h -915 v 330.5 h 915 v -330.5"
         style="fill:#ffb149;fill-opacity:1;fill-rule:nonzero;stroke:none"
         id="path56" /><path
         d="m 22525.1,10119.7 h -902.3 v 317.7 h 902.3 v -317.7"
         style="fill:#00ccbe;fill-opacity:1;fill-rule:nonzero;stroke:none"
         id="path58" /><path
         d="m 5698.37,12665 h -671.06 v 236.3 h 671.06 V 12665"
         style="fill:#ffb149;fill-opacity:1;fill-rule:nonzero;stroke:none"
         id="path60" /><path
         d="m 5032.04,12669.8 h 661.61 v 226.8 h -661.61 z m 671.06,-9.5 h -680.51 v 245.7 h 680.51 v -245.7"
         style="fill:#ffb149;fill-opacity:1;fill-rule:nonzero;stroke:none"
         id="path62" /><path
         d="M 6539.56,12665 H 5868.5 v 236.3 h 671.06 V 12665"
         style="fill:#00ccbe;fill-opacity:1;fill-rule:nonzero;stroke:none"
         id="path64" /><path
         d="m 17731.7,13400.7 c 20.2,0.7 41.3,-3.2 59.7,-13.5 18.5,-10 33.5,-24.7 46.8,-39.2 13.2,-14.6 25.3,-29.3 38.6,-41.3 13.1,-12 27.3,-20.8 42.5,-24.6 l 11.6,-2.2 12,-0.1 c 4,-0.5 8,0.7 11.9,1.1 4,0.4 7.9,0.8 11.4,2.3 14.8,4.1 27.3,12.2 38.7,24.3 11.4,12 21.8,26.9 33.5,42.9 11.7,15.8 24.9,33.2 43.8,48.1 5,3.5 9.8,7.1 15.1,10.3 5.6,2.9 11.2,5.6 16.9,8.3 11.9,4.1 24.2,7.7 36.3,8.4 l 9.2,1 c 3.1,0.2 6.1,-0.1 9.2,-0.2 6.2,-0.4 12.3,-0.3 18.6,-1.3 6.2,-1.3 12.5,-2.7 18.7,-4.2 6.1,-2 12,-4.7 18,-7.2 23.4,-11.2 41.3,-28 55.7,-43.5 14.5,-15.7 26.4,-30.7 38,-42.3 11.5,-11.8 22.2,-19.2 32.9,-22.7 2.5,-1.4 5.5,-1.5 8.2,-2.1 l 4.1,-0.9 c 1.5,-0.2 3.1,0 4.7,-0.1 3,0.1 6.1,-0.5 9.1,-0.1 3.1,0.5 6.1,0.9 9.1,1.2 11.3,2.6 20,7.2 29.7,16 9.6,8.7 19.6,21.7 31,37.1 11.5,15.6 24.7,33.8 44.4,51.2 4.6,4.4 10.2,8.4 16,12.4 l 8.6,5.9 9.7,5 c 6.5,3.2 13,6.5 20.1,8.3 6.9,1.9 14.1,4.5 21,5.4 6.9,0.9 13.8,1.7 20.8,2.4 7,0.5 14,-0.2 21.1,-0.4 3.5,-0.2 7,-0.3 10.6,-0.8 l 10.8,-2.2 c 7.3,-1.7 14.6,-3.1 21.4,-6.2 28.5,-10.3 51.5,-29.2 67.7,-45.9 16.2,-17.1 28.6,-32.7 39.4,-44.3 10.6,-12 19.6,-18.8 26.4,-22.2 1.8,-0.6 3.3,-1.7 5.1,-2.3 1.9,-0.3 3.7,-0.8 5.5,-1.5 2,-0.5 4.5,-0.3 6.7,-0.7 2.2,-0.6 4.6,-0.4 6.8,-0.2 9.7,0.3 15.4,1.2 24,6.5 8.7,5 19.3,15.3 31.5,28.9 12.6,13.3 26.4,30.2 45.9,46.6 5.2,4 10.4,8 15.7,11.8 6,3.7 12,7.2 18.1,10.5 6.4,3.1 13.3,5.6 20,8.1 6.6,2.6 13.8,3.3 20.7,4.8 7.1,1.6 13.8,1.8 20.5,1.8 6.8,0 13.5,0.7 20.1,-0.7 6.6,-0.9 13.2,-2 19.7,-3.1 6.6,-1.9 13.1,-4.1 19.5,-6.4 25.7,-10.2 46.1,-28.4 59.9,-46.1 14.2,-17.9 23.8,-35.6 33.3,-51.5 9.2,-16.1 18.6,-30.1 30.6,-41.5 11.9,-11.4 27.5,-19.3 45.9,-24.2 v -11.6 c -10.1,-1.3 -20.7,-3.1 -31.6,-1.6 l -8.3,0.8 -8,2.1 c -5.4,1.4 -11,2.8 -16,5.3 -21,8.8 -38.3,23.5 -53.5,37.1 -14.9,13.9 -28.3,27.3 -41.2,36.9 -13,9.8 -24.7,14.8 -35.8,16.3 -3,0.1 -5.7,0.4 -8.5,0.7 -3.2,-0.4 -6.2,-0.7 -9.2,-0.8 -3,0.1 -5.9,-1.2 -8.8,-1.7 -2.8,-0.6 -5.8,-1 -8,-2.5 -9.8,-4 -16.7,-9.2 -25.5,-19.5 -8.7,-10.1 -18.3,-24 -30,-40.7 -11.9,-16.2 -26.5,-35.7 -49,-53.5 -6.1,-4.3 -12,-8.5 -18.4,-12.3 -6.8,-3.5 -13.8,-6.9 -20.8,-10 -14.5,-5 -29.7,-9 -44.1,-9.7 l -11,-0.9 c -3.6,-0.2 -7.3,0.2 -11,0.4 -7.3,0.5 -14.5,0.7 -22,2.1 -7.5,1.7 -15.1,3.5 -22.5,5.7 -7.3,2.5 -14.4,6 -21.4,9.2 -27.6,14.3 -46.9,34.9 -61.3,52 -14.3,17.5 -24.7,33.2 -34.3,44.8 -9.3,12 -16.7,18.6 -24.1,22.6 -1.7,1.6 -4,1.9 -6.1,2.7 -1,0.4 -2,0.9 -3.1,1.4 -1.1,0.3 -2.5,0.3 -3.8,0.6 -2.5,0.2 -5.1,1.2 -7.8,1.3 -2.6,-0.1 -5.2,-0.1 -7.9,0.1 -9.9,-0.9 -18.2,-3.1 -28.4,-10.4 -10,-7.2 -21.2,-19.3 -33.6,-33.9 -12.6,-14.7 -26.9,-32 -47,-47.9 -19.8,-16.1 -47.1,-28.4 -74,-31.5 -6.6,-0.5 -13.2,-0.9 -19.7,-1.1 -6.6,-0.2 -13.1,0.9 -19.7,1.5 -3.2,0.4 -6.5,0.7 -9.7,1.3 l -9.9,2.7 c -6.5,1.8 -13.1,3.5 -19.2,6.7 -25.3,10.8 -44.9,29 -59.1,45.8 -14.2,17 -25,33.3 -35.7,46.8 -10.6,13.6 -20.8,24.2 -31.8,30.8 -2.9,1.3 -5.6,3 -8.5,4.3 -3.1,0.9 -6.2,1.9 -9.3,3 -3.2,0.9 -6.8,0.9 -10.2,1.5 -1.7,0.2 -3.4,0.7 -5.1,0.7 l -5.3,-0.2 c -14.2,0.1 -26.7,-3.2 -38.9,-11.4 -12.3,-7.9 -24.4,-20.2 -36.8,-34.3 -12.5,-14 -25.6,-29.9 -42.3,-44.4 -16.3,-14.6 -38.5,-26.7 -61.4,-30.5 -5.7,-1.6 -11.4,-1.8 -17.1,-2 -5.7,0 -11.3,-0.9 -16.9,0.2 l -16.8,2.1 c -5.5,1.4 -11,3.2 -16.5,4.8 -21.6,7.9 -39.5,22.4 -53.2,37.9 -13.9,15.5 -24.7,31.9 -35.9,47.1 -11,15.2 -22.7,29.2 -37.3,39.4 -14.4,10.2 -31.8,15.7 -50.2,17.2 v 11.6"
         style="fill:#00ccbe;fill-opacity:1;fill-rule:nonzero;stroke:none"
         id="path66" /><path
         d="m 19212,12829.4 c -20.1,-0.6 -41.3,3.3 -59.6,13.5 -18.5,10 -33.5,24.7 -46.8,39.2 -13.2,14.6 -25.4,29.4 -38.6,41.3 -13.1,12.1 -27.3,20.8 -42.5,24.6 l -11.6,2.2 -12.1,0.2 c -4,0.5 -7.9,-0.8 -11.9,-1.1 -3.9,-0.5 -7.9,-0.9 -11.4,-2.4 -14.8,-4 -27.3,-12.2 -38.6,-24.3 -11.5,-11.9 -21.8,-26.9 -33.5,-42.8 -11.8,-15.8 -25,-33.2 -43.8,-48.1 -5,-3.5 -9.9,-7.2 -15.1,-10.4 -5.6,-2.8 -11.3,-5.6 -17,-8.2 -11.8,-4.1 -24.1,-7.8 -36.3,-8.5 l -9.1,-0.9 c -3.1,-0.3 -6.2,0.1 -9.3,0.1 -6.1,0.4 -12.3,0.3 -18.5,1.4 -6.3,1.3 -12.5,2.7 -18.8,4.2 -6.1,2 -12,4.6 -18,7.1 -23.3,11.2 -41.3,28.1 -55.7,43.6 -14.5,15.6 -26.4,30.6 -38,42.2 -11.5,11.9 -22.2,19.2 -32.8,22.7 -2.5,1.4 -5.5,1.5 -8.2,2.1 l -4.2,1 c -1.5,0.1 -3.1,0 -4.6,0 -3.1,-0.1 -6.1,0.6 -9.2,0.1 -3,-0.5 -6,-0.9 -9,-1.2 -11.4,-2.6 -20.1,-7.2 -29.8,-15.9 -9.6,-8.7 -19.6,-21.7 -30.9,-37.2 -11.5,-15.5 -24.7,-33.8 -44.4,-51.1 -4.6,-4.4 -10.2,-8.5 -16,-12.5 l -8.7,-5.9 -9.6,-4.9 c -6.6,-3.2 -13.1,-6.5 -20.1,-8.3 -7,-1.9 -14.1,-4.5 -21,-5.4 -6.9,-0.9 -13.9,-1.7 -20.9,-2.4 -6.9,-0.6 -14,0.1 -21,0.4 -3.5,0.2 -7,0.2 -10.6,0.8 l -10.9,2.2 c -7.2,1.6 -14.5,3 -21.4,6.1 -28.4,10.4 -51.4,29.3 -67.7,46 -16.2,17.1 -28.5,32.6 -39.4,44.3 -10.6,12 -19.5,18.8 -26.3,22.2 -1.8,0.5 -3.4,1.6 -5.1,2.3 -1.9,0.2 -3.7,0.7 -5.5,1.5 -2,0.5 -4.5,0.2 -6.7,0.7 -2.3,0.5 -4.6,0.3 -6.9,0.1 -9.7,-0.2 -15.4,-1.1 -23.9,-6.5 -8.7,-5 -19.3,-15.2 -31.6,-28.8 -12.5,-13.4 -26.3,-30.3 -45.8,-46.6 -5.2,-4 -10.4,-8 -15.7,-11.9 -6,-3.6 -12.1,-7.1 -18.2,-10.5 -6.3,-3 -13.2,-5.6 -19.9,-8 -6.7,-2.6 -13.9,-3.4 -20.8,-4.9 -7,-1.6 -13.7,-1.7 -20.5,-1.8 -6.7,0.1 -13.4,-0.6 -20,0.7 -6.7,1 -13.2,2 -19.7,3.2 -6.6,1.9 -13.1,4.1 -19.5,6.3 -25.8,10.3 -46.1,28.5 -60,46.2 -14.2,17.9 -23.8,35.5 -33.2,51.5 -9.2,16.1 -18.7,30.1 -30.6,41.5 -11.9,11.4 -27.5,19.3 -46,24.1 v 11.6 c 10.1,1.4 20.8,3.1 31.7,1.7 l 8.2,-0.8 8.1,-2.1 c 5.4,-1.5 11,-2.8 15.9,-5.4 21.1,-8.7 38.4,-23.5 53.5,-37.1 15,-13.8 28.3,-27.3 41.2,-36.9 13,-9.8 24.8,-14.8 35.9,-16.2 2.9,-0.2 5.7,-0.5 8.5,-0.7 3.1,0.3 6.2,0.6 9.1,0.8 3,-0.2 5.9,1.2 8.8,1.7 2.9,0.6 5.8,1 8,2.4 9.8,4.1 16.8,9.2 25.6,19.6 8.7,10.1 18.2,24 29.9,40.6 12,16.3 26.6,35.8 49.1,53.6 6,4.2 11.9,8.5 18.3,12.3 6.9,3.5 13.8,6.8 20.9,10 14.4,5 29.7,9 44.1,9.7 l 10.9,0.9 c 3.7,0.2 7.3,-0.3 11,-0.4 7.4,-0.6 14.6,-0.8 22.1,-2.2 7.5,-1.6 15,-3.5 22.5,-5.7 7.2,-2.5 14.3,-5.9 21.4,-9.1 27.6,-14.4 46.8,-34.9 61.2,-52 14.4,-17.6 24.8,-33.3 34.3,-44.9 9.4,-11.9 16.8,-18.5 24.2,-22.6 1.7,-1.5 3.9,-1.8 6,-2.7 1.1,-0.4 2.1,-0.8 3.2,-1.3 1.1,-0.4 2.5,-0.4 3.7,-0.6 2.6,-0.3 5.2,-1.3 7.8,-1.3 2.6,0.1 5.3,0.1 8,-0.1 9.9,0.8 18.1,3.1 28.3,10.4 10.1,7.2 21.2,19.3 33.6,33.9 12.6,14.6 26.9,32 47.1,47.9 19.8,16 47,28.4 73.9,31.5 6.6,0.4 13.2,0.8 19.8,1.1 6.5,0.1 13.1,-1 19.6,-1.6 3.3,-0.4 6.5,-0.6 9.8,-1.3 l 9.8,-2.6 c 6.6,-1.9 13.2,-3.5 19.2,-6.7 25.3,-10.9 45,-29 59.1,-45.8 14.2,-17 25,-33.3 35.7,-46.9 10.6,-13.6 20.9,-24.1 31.9,-30.7 2.8,-1.3 5.5,-3.1 8.5,-4.4 3.1,-0.8 6.1,-1.8 9.2,-2.9 3.2,-0.9 6.8,-0.9 10.2,-1.6 1.7,-0.2 3.5,-0.7 5.2,-0.7 l 5.2,0.2 c 14.3,0 26.7,3.3 38.9,11.5 12.4,7.8 24.4,20.2 36.9,34.2 12.5,14 25.5,29.9 42.2,44.4 16.3,14.7 38.5,26.7 61.5,30.6 5.7,1.5 11.4,1.7 17.1,1.9 5.6,0.1 11.3,0.9 16.9,-0.1 l 16.8,-2.1 c 5.5,-1.5 11,-3.2 16.4,-4.9 21.7,-7.8 39.6,-22.3 53.3,-37.8 13.8,-15.5 24.7,-31.9 35.8,-47.1 11.1,-15.2 22.8,-29.3 37.3,-39.4 14.4,-10.3 31.8,-15.8 50.2,-17.3 v -11.6"
         style="fill:#ff5776;fill-opacity:1;fill-rule:nonzero;stroke:none"
         id="path68" /><path
         d="m 22500.7,6988.55 -212.3,212.3 212.3,212.3 212.3,-212.3 -212.3,-212.3"
         style="fill:#ffb149;fill-opacity:1;fill-rule:nonzero;stroke:none"
         id="path70" /><path
         d="m 12745.5,13585.1 -212.3,212.3 212.3,212.3 212.3,-212.3 -212.3,-212.3"
         style="fill:#ffb149;fill-opacity:1;fill-rule:nonzero;stroke:none"
         id="path72" /><path
         d="m 20310.1,3996 h -1620.2 l 53,81.8 1567.2,2421 z m 470,0 v 3370.04 h -470 v -2.4 L 18130.1,3996 v -470 h 2180 V 2166 h 470 v 1360 h 400 v 470 h -400"
         style="fill:#ff5776;fill-opacity:1;fill-rule:nonzero;stroke:none"
         id="path74" /><path
         d="m 15376.7,13076 329.1,-2240.1 522.4,142.6 -563.6,2148.1 -287.9,-50.6"
         style="fill:#000061;fill-opacity:1;fill-rule:nonzero;stroke:none"
         id="path76" /><path
         d="m 15874.1,12328.1 96.2,-9.1 c 48.5,-4.5 91.1,-34 112.6,-77.7 l 25.5,-52.2 c 9.7,-19.7 12.8,-42 8.9,-63.7 l -15.2,-84 37.9,-52.7 c 28,-39.1 39.7,-87.5 32.8,-135 l -12.5,-85 23.9,-52.8 c 17.8,-39.5 22.1,-83.8 12,-125.9 l -22.1,-92.2 c -9.1,-38 -25.4,-73.9 -48,-105.7 l -25.6,-35.8 c -46.4,-65.3 -111.3,-115.2 -186.3,-143.4 v 0 c -12,-4.4 -25.4,-0.6 -33.3,9.4 v 0 c -24.5,31.3 -36,70.9 -31.8,110.5 l 10,94.9 -30.9,-12 c -18.7,-7.3 -40,-0.6 -51.1,16.1 v 0 c -17.7,26.6 -24.7,58.9 -19.4,90.4 l 18.9,112.6 -44.3,-13.8 c -16.1,-4.9 -33.4,1.5 -42.3,15.8 l -1.1,1.9 c -15.9,25.5 -24.3,55 -24.3,85 v 0 c 0,91.5 33.7,179.8 94.7,247.9 l 83.6,93.4 31.2,263.1"
         style="fill:#ffb2a8;fill-opacity:1;fill-rule:nonzero;stroke:none"
         id="path78" /><path
         d="m 10481.8,11938.4 c -24.4,-12.3 -49.4,-22.8 -75.2,-31.5 -168,-56.2 -330.3,2.2 -478.25,84 -112,61.9 -236.58,197.6 -371.99,139.2 -171.4,-74 189.49,-224.2 -301.51,-417.5 -225,-88.6 -480.7,-45.7 -648.2,96.5 215,651.9 1425.15,873.9 1649.25,658.9 70,-67.1 159.8,-269.5 225.9,-529.6"
         style="fill:#000061;fill-opacity:1;fill-rule:nonzero;stroke:none"
         id="path80" /><path
         d="m 8472.63,11808.2 c 189.76,-196.8 525.31,-222.6 776.06,-61.7 444.1,285.1 10.56,349 164.34,454.9 121.48,83.6 320.27,-12 442.17,-50.9 161.1,-51.5 331.6,-77.3 485.5,10.5 137.4,78.4 236.7,215.9 303.6,357.8 99.6,211.1 215.2,541.5 76.8,758.9 -47.8,75.1 -123.8,128.8 -206,161 -159.9,62.7 -369.9,73.6 -532.72,16.9 -55.14,-19.2 -225.71,-98.3 -226.49,-173.4 0.01,0.1 3.18,306.8 -255.31,207.2 -258.51,-99.6 -334.69,-321.5 -334.69,-321.5 0,0 -29.88,141.2 -202.22,87.4 -172.34,-53.8 -483.88,-352.4 -245.25,-784.7 0,0 -136.45,95.7 -126.81,0 9.62,-95.4 62.4,-119.2 62.66,-119.3 -58.22,26.1 -168.35,11.9 -224.37,-10.6 -98.05,-39.3 -111.24,-142.2 -97.46,-237.5 17.68,-122.1 68.54,-220.8 140.19,-295"
         style="fill:#ff5776;fill-opacity:1;fill-rule:nonzero;stroke:none"
         id="path82" /><path
         d="m 8550.19,12800.4 c 0,0 59.38,174 -9.29,228.4 -68.67,54.4 -228.11,-55.7 9.29,-228.4"
         style="fill:#000061;fill-opacity:1;fill-rule:nonzero;stroke:none"
         id="path84" /><path
         d="m 9731.61,10819.8 -23.4,32.4 252.9,182.6 c 2.81,2 3.57,4.8 3.76,6.2 0.2,1.5 0.21,4.4 -1.98,7.1 l -290.61,359.8 31.12,25.1 290.61,-359.8 c 8.49,-10.4 12.29,-24.1 10.49,-37.5 -1.8,-13.3 -9.06,-25.5 -19.98,-33.4 l -252.91,-182.5"
         style="fill:#000061;fill-opacity:1;fill-rule:nonzero;stroke:none"
         id="path86" /><path
         d="m 15355.5,15020.2 c -529.1,0 -959.5,-430.4 -959.5,-959.5 0,-529.1 430.4,-959.5 959.5,-959.5 529,0 959.4,430.4 959.4,959.5 0,529.1 -430.4,959.5 -959.4,959.5 z m 0,-2009 c -578.7,0 -1049.5,470.8 -1049.5,1049.5 0,578.7 470.8,1049.5 1049.5,1049.5 578.6,0 1049.4,-470.8 1049.4,-1049.5 0,-578.7 -470.8,-1049.5 -1049.4,-1049.5"
         style="fill:#000061;fill-opacity:1;fill-rule:nonzero;stroke:none"
         id="path88" /><path
         d="m 15305.1,13035.8 6,-89.1 465.5,89.1 -37.7,79.3 -433.8,-79.3"
         style="fill:#000061;fill-opacity:1;fill-rule:nonzero;stroke:none"
         id="path90" /><path
         d="m 20522.1,11891.4 -38.1,46.4 651.2,535.8 38.2,-46.3 -651.3,-535.9"
         style="fill:#ff5776;fill-opacity:1;fill-rule:nonzero;stroke:none"
         id="path92" /><path
         d="m 20366.2,11370.2 -39.3,45.4 1212.8,1051.4 39.3,-45.4 -1212.8,-1051.4"
         style="fill:#ff5776;fill-opacity:1;fill-rule:nonzero;stroke:none"
         id="path94" /><path
         d="m 2578.14,7939.24 -38.12,46.33 651.23,535.85 38.12,-46.33 -651.23,-535.85"
         style="fill:#ff5776;fill-opacity:1;fill-rule:nonzero;stroke:none"
         id="path96" /><path
         d="m 2422.23,7418.02 -39.3,45.33 1212.76,1051.41 39.31,-45.33 -1212.77,-1051.41"
         style="fill:#ff5776;fill-opacity:1;fill-rule:nonzero;stroke:none"
         id="path98" /><path
         d="m 8510.62,12686.2 c 0,0 -335.79,-45.2 -473.62,429.9 0,0 -32.7,449.6 473.62,-429.9"
         style="fill:#000061;fill-opacity:1;fill-rule:nonzero;stroke:none"
         id="path100" /><path
         d="m 8189.62,12150.1 c 0,0 -111.31,42.7 -175.14,-122.8 -63.84,-165.5 126.97,-36.8 175.14,122.8"
         style="fill:#000061;fill-opacity:1;fill-rule:nonzero;stroke:none"
         id="path102" /><path
         d="m 16917.2,11779.7 c 217.9,-254.8 514.7,-454.2 654.2,-768.7 66.7,-150.5 90.5,-320.3 33.4,-477.8 -49.2,-135.8 -149.4,-247.5 -266.2,-330 -116.1,-81.9 -249,-138.6 -386.9,-171.2 -151,-35.76 -311.6,-51.61 -439.8,-147.2 -221.8,-165.46 -281.8,-468.07 -213.4,-724.7 146.3,-549.01 760,-998.09 1331.8,-877.63 598.1,125.98 917.8,723.71 1253.8,1171.86 188.5,251.37 410.3,490.75 705.7,614.17 290.5,121.3 625.4,130.9 923,28.9 74.1,-25.4 145.1,-58.2 213.1,-97 16.8,-9.53 31.9,16.4 15.1,26 -253.4,144.4 -551.5,198 -840,157.6 -297.1,-41.6 -557.8,-186 -770,-395.11 -431.2,-424.76 -661.2,-1046.84 -1203.3,-1358.56 -269.3,-154.89 -581.6,-178.91 -869.9,-61.27 -290.2,118.37 -537.8,354.01 -671.1,637.6 -131.4,279.69 -124.4,658.58 146.2,856.48 132.6,96.98 300.6,106.72 454.6,146.76 130.1,33.9 256.2,89.8 366.2,167.4 222.1,156.9 356.6,403.9 299.9,678.9 -66.3,321.4 -323,545.8 -545.9,765.3 -58.6,57.8 -115.8,116.9 -169.3,179.4 -12.6,14.7 -33.7,-6.6 -21.2,-21.2 v 0"
         style="fill:#ffffff;fill-opacity:1;fill-rule:nonzero;stroke:none"
         id="path104" /><path
         d="m 21434.1,7587.46 c -660.3,-74.5 -1340.5,135.32 -1853.7,555.53 -532.1,435.74 -842.6,1087.43 -874.9,1772.1 -18.3,388.01 52,778.91 213.2,1132.81 7.9,17.5 -17.9,32.8 -25.9,15.2 -288.2,-633 -290.3,-1380.41 -21.3,-2020.43 265.3,-631.19 798,-1114.17 1438.6,-1347.52 358.3,-130.49 744.8,-180.47 1124,-137.69 18.9,2.14 19.1,32.16 0,30 v 0"
         style="fill:#ffffff;fill-opacity:1;fill-rule:nonzero;stroke:none"
         id="path106" /><path
         d="m 16674.8,8762.99 c 0,-85.37 -69.2,-154.59 -154.5,-154.59 -85.4,0 -154.6,69.22 -154.6,154.59 0,85.38 69.2,154.59 154.6,154.59 85.3,0 154.5,-69.21 154.5,-154.59"
         style="fill:#ffffff;fill-opacity:1;fill-rule:nonzero;stroke:none"
         id="path108" /><path
         d="m 14989.2,13834.6 -29.4,27.1 690.1,746.8 29.3,-27.1 -690,-746.8"
         style="fill:#000061;fill-opacity:1;fill-rule:nonzero;stroke:none"
         id="path110" /><path
         d="m 15334.2,13869.1 -29.3,27.2 345,373.3 29.3,-27.1 -345,-373.4"
         style="fill:#000061;fill-opacity:1;fill-rule:nonzero;stroke:none"
         id="path112" /><path
         d="m 17869.1,5140.4 c -38.3,-19.1 -82.7,-27.7 -120.9,-20.3 -38.7,7.1 -67.4,30.4 -82.7,66.4 -7.7,18 -11.8,36 -9.4,51.2 0.1,3.9 1.6,7.5 2.1,11.2 1.6,3.4 2.5,7.1 4.6,10.4 3.3,6.7 7.9,13.1 14.1,18.8 23.8,23.5 66.1,35 102.6,29.1 9.4,-1.2 18,-4.1 26.6,-7.1 8.1,-3.6 15.9,-7.7 22.9,-12.8 6.7,-5.4 13.3,-11 18.4,-18 2.9,-3.2 5.1,-7.1 7.5,-10.8 2.5,-3.6 5,-9.1 7.5,-13.5 13.8,-27.1 23.8,-57.8 31.7,-90.1 -8,-5.4 -16.3,-10.2 -25,-14.5 z m 2286.5,3025.7 c -92.4,40.1 -187.5,74.41 -284.9,100.9 -194.5,53.3 -398.7,76.8 -600.7,55.7 -25.1,-3.3 -50.2,-6 -75.3,-9.8 l -74.8,-14.1 -73.8,-18.69 c -12.5,-2.71 -24.2,-7.31 -36.4,-11.01 l -36.2,-11.7 -18.2,-5.9 -17.8,-6.9 -35.3,-14 c -11.7,-4.9 -23.9,-8.9 -35.3,-14.4 l -34.6,-16 c -46.1,-21.5 -90.6,-46.2 -134.1,-72.5 -173.7,-106.1 -323.3,-250.6 -438.5,-418.79 -57.5,-84.2 -106.4,-174.6 -144.5,-269.51 -37.8,-94.9 -66.1,-193.6 -84.9,-293.8 -5.3,-25 -8.8,-50.2 -13,-75.3 -3.3,-25.3 -7.4,-50.5 -9.9,-75.8 -5.8,-50.59 -9.3,-101.4 -11.8,-152.2 -4.5,-101.7 -3.7,-203.1 3,-304.8 13.7,-203.8 53.4,-402.1 73,-600.5 10,-99.1 15.4,-198.2 9.8,-296.1 l -2.3,-36.7 c -0.9,-12.2 -2.9,-24.2 -4.2,-36.3 l -4.4,-36.3 c -1.8,-12 -4.5,-23.9 -6.8,-35.8 l -7,-35.7 c -2.6,-11.7 -6.4,-23.3 -9.4,-34.9 l -9.8,-34.9 c -3.5,-11.4 -7.5,-22.7 -11.8,-33.9 -15.8,-42 -35.8,-82.2 -59.6,-120 -6.3,17.1 -13.7,34.1 -22.6,50.9 -3.7,6.5 -6.6,12.5 -11.1,19.3 -4.6,6.8 -8.9,13.7 -14.4,19.9 -10.3,13 -22.8,24.1 -36.1,33.9 -13.6,9.6 -28.2,17.2 -43.3,23.2 -15.1,5.5 -30.8,9.8 -46.4,11.7 -15.7,2.1 -31.5,2.7 -47.2,1.3 -15.5,-1.1 -31,-4 -46.1,-8.5 -30.2,-9 -59.2,-24.5 -83.2,-48.5 -12.1,-11.8 -22.4,-26.1 -30,-41.9 -4.2,-7.8 -7,-16.2 -9.7,-24.6 -2,-8.5 -4.4,-17.1 -4.9,-25.8 -4.1,-35.1 5,-67.8 17.5,-95.5 12.5,-28.1 32.5,-54.7 58,-74.8 12.9,-10 27,-18 41.7,-24.4 14.8,-6.3 30,-10.4 45.3,-13.2 30.5,-5.3 60.8,-4 89.6,1.4 28.8,5.6 56.3,15.2 82,28.6 1.5,0.8 3.3,1.7 4.8,2.6 1.7,-10.2 3.2,-20.5 4.9,-30.9 l 5.6,-37.5 c 1.9,-12.6 4,-25.6 5.5,-37.5 5.9,-48.7 14.2,-97.1 16,-146.2 8.8,-97.7 5.4,-195.9 -2.1,-293.3 l -8.4,-72.8 -2.1,-18.2 c -0.8,-6.1 -2.1,-12.1 -3.2,-18.1 l -12.7,-72.2 c -1.1,-6 -2,-12 -3.3,-18 l -4.4,-17.8 -17.2,-71.2 c -2.5,-12 -6.6,-23.6 -10,-35.3 l -10.6,-35 -10.6,-35 c -3.7,-11.7 -8.3,-23 -12.5,-34.5 l -25.4,-68.7 -29.3,-67.1 c -5,-11.1 -9.5,-22.5 -15,-33.4 l -16.6,-32.6 -16.6,-32.7 c -5.4,-10.8 -10.8,-21.8 -17.1,-32.3 l -36.7,-63.3 c -3.2,-5.2 -6.2,-10.6 -9.3,-15.8 l -10.2,-15.3 -20.1,-30.6 c -25.6,-41.5 -56.2,-79.7 -84.7,-119.2 l -46.6,-56.5 c -7.8,-9.4 -15.3,-19 -23.4,-28.1 l -24.8,-26.9 c -130.9,-145 -285.1,-267.9 -452.1,-368.1 -7.3,-4 -14.6,-8 -21.8,-12.2 -35.3,-19.7 -70.3,-40 -107,-56.9 l -32.7,-16.2 c -11,-5.4 -21.9,-10.8 -33.1,-15.3 l -67.1,-28.7 c -90.5,-35.5 -182.8,-67.6 -277.5,-89.1 l -35.4,-8.7 c -11.8,-2.8 -23.8,-4.7 -35.8,-7.1 l -71.4,-13.7 -62.4,-8.4 c -73.9,-68.7 -151.1,-123.6 -230.4,-163.9 l 5.8,0.2 78.3,2.9 77.9,7.2 38.8,3.6 38.8,5.8 77.2,11.7 76.6,15.8 c 12.8,2.8 25.7,5.1 38.3,8.2 l 37.8,10 c 101.3,24.7 199.3,60.5 295.5,99.9 l 58.7,26.2 12.5,5.6 c 12.1,5.1 23.7,11 35.1,17 l 34.8,17.7 c 46.8,22.7 91,50.2 136.2,76 176.4,109.5 338.4,242.9 475.2,399.2 l 25.8,29 c 8.4,9.8 16.3,20.2 24.6,30.2 l 48.3,60.9 c 30,42.4 61.6,83.6 88.4,128.1 l 20.8,32.9 10.4,16.4 c 3.4,5.5 6.5,11.3 9.6,16.9 l 37.9,67.9 c 6.7,11.2 12.1,23 17.9,34.6 l 17.1,35 17,34.9 c 5.6,11.7 10.1,23.9 15.4,35.7 l 30,71.8 25.9,73.4 c 4.2,12.2 9,24.3 12.6,36.7 l 10.8,37.4 10.7,37.4 c 3.5,12.5 7.5,24.8 10,37.5 l 17.1,75.9 4.2,18.9 c 1.3,6.4 2.2,12.8 3.1,19.2 l 6.4,38.4 6.1,38.3 c 1,6.4 2.3,12.8 3,19.2 l 1.9,19.4 7.8,77.2 c 6.4,103.3 8.3,207.1 -2.5,310 -2.9,51.7 -12.4,102.5 -19.5,153.6 -1.6,13.1 -4,24.9 -5.9,37.2 l -6.2,37.1 c -4.1,25 -8.4,50.5 -13.7,76.1 -0.5,2.5 -1.2,5.1 -1.7,7.6 4.2,4.9 7.9,9.9 11.5,14.9 7.7,10.9 15,21.9 21.9,33.2 28.3,45 51.6,93.1 69.5,142.8 4.6,12.5 8.8,25 12.5,37.7 l 10,38 c 3.1,12.7 6.9,25.3 9.6,38 l 7,38.6 c 2.2,12.8 5,25.6 6.5,38.5 l 4.3,38.7 c 1.3,12.9 3.1,25.8 3.8,38.8 l 1.8,38.7 c 4.2,103.3 -3,205.7 -14.6,306.7 -23.4,202 -66,399.2 -82.3,597.4 -8.1,99.1 -10.3,199.4 -7.7,298.8 1.9,49.81 4.4,99.6 9.5,149.1 2,24.8 5.5,49.4 8.3,74.1 3.8,24.6 6.8,49.3 11.6,73.6 16.8,98.01 42.7,194.2 78,286.9 35.6,92.5 81.7,181.11 136.3,264.01 109.8,165.49 253.8,309.29 422.5,415.9 42.1,26.39 85.4,51.29 130.3,73.09 l 33.7,16.2 c 11.1,5.6 23,9.7 34.4,14.7 l 34.5,14.2 17.4,7.21 17.6,5.99 35.5,12 c 11.9,3.8 23.4,8.6 35.7,11.4 l 72.2,19.5 73.5,15 c 24.7,4.2 49.4,7.2 74.2,10.9 198.9,23.9 401.8,3.91 596,-46.09 97.4,-24.91 192.8,-57.61 285.5,-96.31 93.2,-38 183.7,-82.6 271.6,-131.5 -87.1,50.31 -177.1,96.3 -269.7,135.9"
         style="fill:#00ccbe;fill-opacity:1;fill-rule:nonzero;stroke:none"
         id="path114" /><path
         d="m 6237.93,2212 c 20.88,0.7 42.79,-3.4 61.84,-14 19.12,-10.4 34.69,-25.6 48.46,-40.6 13.71,-15.2 26.29,-30.5 39.98,-42.9 13.62,-12.5 28.32,-21.5 44.1,-25.4 l 12,-2.3 12.5,-0.2 c 4.13,-0.5 8.24,0.8 12.31,1.2 4.1,0.4 8.19,0.8 11.84,2.4 15.32,4.2 28.26,12.6 40.03,25.2 11.86,12.4 22.61,27.9 34.73,44.4 12.16,16.4 25.83,34.4 45.36,49.9 5.17,3.6 10.23,7.3 15.67,10.7 5.77,2.9 11.64,5.8 17.55,8.5 12.28,4.2 25.04,8 37.62,8.8 l 9.51,1 c 3.17,0.2 6.36,-0.2 9.55,-0.2 6.39,-0.4 12.76,-0.3 19.21,-1.4 6.48,-1.3 12.98,-2.8 19.45,-4.4 6.32,-2 12.45,-4.8 18.64,-7.4 24.23,-11.6 42.83,-29 57.76,-45.1 15.01,-16.2 27.34,-31.7 39.37,-43.8 11.89,-12.3 22.98,-19.9 34.01,-23.5 2.58,-1.5 5.68,-1.6 8.54,-2.2 l 4.28,-1 c 1.53,-0.1 3.21,0 4.78,0 3.2,0.1 6.36,-0.6 9.52,-0.1 3.15,0.5 6.27,0.9 9.4,1.2 11.72,2.7 20.76,7.5 30.78,16.6 9.99,9 20.33,22.4 32.1,38.4 11.93,16.1 25.58,35.1 46.02,53.1 4.73,4.5 10.56,8.7 16.56,12.8 l 8.95,6.2 10.02,5.1 c 6.77,3.3 13.53,6.7 20.84,8.6 7.16,2 14.6,4.7 21.74,5.6 7.15,0.9 14.37,1.8 21.6,2.5 7.23,0.6 14.51,-0.2 21.81,-0.4 3.66,-0.3 7.27,-0.3 10.97,-0.8 l 11.27,-2.3 c 7.5,-1.7 15.08,-3.2 22.18,-6.4 29.51,-10.7 53.31,-30.3 70.15,-47.6 16.81,-17.7 29.58,-33.9 40.82,-45.9 11.01,-12.5 20.29,-19.5 27.31,-23.1 1.86,-0.5 3.46,-1.6 5.29,-2.3 1.99,-0.3 3.85,-0.8 5.71,-1.6 2.04,-0.5 4.65,-0.3 6.93,-0.7 2.35,-0.6 4.74,-0.3 7.11,-0.2 10.06,0.3 15.97,1.2 24.84,6.8 8.97,5.2 19.99,15.8 32.65,29.9 12.99,13.8 27.32,31.3 47.51,48.2 5.41,4.2 10.8,8.3 16.31,12.3 6.2,3.8 12.48,7.4 18.77,10.9 6.59,3.2 13.76,5.8 20.68,8.4 6.91,2.6 14.37,3.4 21.52,5 7.27,1.7 14.26,1.8 21.24,1.8 6.99,0 13.92,0.7 20.78,-0.7 6.87,-0.9 13.68,-2 20.39,-3.2 6.82,-2 13.61,-4.3 20.24,-6.6 26.67,-10.6 47.76,-29.5 62.12,-47.9 14.69,-18.5 24.64,-36.8 34.46,-53.3 9.51,-16.7 19.29,-31.2 31.69,-43 12.34,-11.9 28.5,-20 47.62,-25 v -12 c -10.46,-1.4 -21.5,-3.3 -32.8,-1.8 l -8.56,0.8 -8.32,2.2 c -5.59,1.5 -11.43,2.9 -16.56,5.6 -21.77,9.1 -39.7,24.3 -55.43,38.4 -15.46,14.4 -29.32,28.3 -42.69,38.3 -13.44,10.1 -25.62,15.3 -37.16,16.8 -3.06,0.1 -5.91,0.5 -8.81,0.8 -3.24,-0.4 -6.39,-0.7 -9.48,-0.9 -3.09,0.2 -6.11,-1.3 -9.08,-1.8 -3,-0.6 -6.01,-1 -8.29,-2.5 -10.16,-4.2 -17.4,-9.6 -26.5,-20.3 -9,-10.4 -18.92,-24.8 -31.03,-42.1 -12.41,-16.9 -27.49,-37 -50.85,-55.5 -6.23,-4.4 -12.39,-8.8 -19.01,-12.7 -7.07,-3.7 -14.29,-7.1 -21.59,-10.4 -14.99,-5.2 -30.79,-9.3 -45.68,-10 l -11.37,-1 c -3.79,-0.2 -7.59,0.3 -11.39,0.4 -7.63,0.6 -15.11,0.8 -22.84,2.3 -7.81,1.7 -15.63,3.6 -23.31,5.9 -7.56,2.6 -14.88,6.1 -22.18,9.5 -28.62,14.8 -48.56,36.1 -63.51,53.8 -14.86,18.2 -25.6,34.5 -35.53,46.5 -9.7,12.4 -17.34,19.3 -25.04,23.5 -1.77,1.5 -4.1,1.8 -6.24,2.7 -1.08,0.4 -2.16,0.9 -3.24,1.4 -1.2,0.4 -2.63,0.4 -3.93,0.7 -2.66,0.2 -5.33,1.3 -8.06,1.3 -2.72,-0.1 -5.46,-0.1 -8.26,0.1 -10.24,-0.9 -18.81,-3.2 -29.37,-10.7 -10.45,-7.5 -21.96,-20.1 -34.83,-35.2 -13.04,-15.2 -27.85,-33.2 -48.72,-49.6 -20.57,-16.6 -48.8,-29.5 -76.65,-32.7 -6.83,-0.5 -13.67,-0.8 -20.47,-1.1 -6.8,-0.2 -13.6,1 -20.35,1.6 -3.39,0.4 -6.74,0.7 -10.12,1.3 l -10.23,2.8 c -6.78,1.9 -13.61,3.6 -19.89,6.9 -26.2,11.3 -46.59,30.1 -61.22,47.5 -14.73,17.6 -25.9,34.5 -36.99,48.5 -11.02,14.1 -21.62,25.1 -33.01,31.9 -2.97,1.3 -5.77,3.2 -8.81,4.5 -3.21,0.9 -6.38,1.9 -9.58,3.1 -3.31,0.9 -7.04,0.9 -10.56,1.6 -1.79,0.2 -3.58,0.7 -5.39,0.7 l -5.42,-0.2 c -14.78,0 -27.64,-3.4 -40.31,-11.8 -12.81,-8.2 -25.26,-21 -38.15,-35.6 -12.99,-14.5 -26.48,-31 -43.79,-46 -16.92,-15.1 -39.89,-27.7 -63.71,-31.6 -5.91,-1.6 -11.81,-1.8 -17.69,-2 -5.89,-0.1 -11.74,-1 -17.56,0.1 l -17.36,2.2 c -5.73,1.5 -11.42,3.3 -17.05,5 -22.44,8.2 -41.01,23.2 -55.2,39.2 -14.37,16.1 -25.59,33.1 -37.16,48.8 -11.47,15.8 -23.59,30.3 -38.64,40.8 -14.94,10.7 -32.94,16.4 -52.02,18 v 12"
         style="fill:#ffb149;fill-opacity:1;fill-rule:nonzero;stroke:none"
         id="path116" /><path
         d="m 18464.2,2873.8 -290.6,111.2 111.2,290.5 290.6,-111.1 -111.2,-290.6"
         style="fill:#ffb149;fill-opacity:1;fill-rule:nonzero;stroke:none"
         id="path118" /><path
         d="m 12211.2,11125.8 c -73.3,790 677.4,835.7 677.4,835.7 336.3,-799.8 -677.4,-835.7 -677.4,-835.7"
         style="fill:#00ccbe;fill-opacity:1;fill-rule:nonzero;stroke:none"
         id="path120" /><path
         d="m 12285,11140 c 81.4,-11.3 493.5,-56.3 700.3,154.3 109.9,112 145.4,279.4 105.5,497.6 -56.6,5.8 -329.9,23.7 -543,-139.9 -145.7,-111.6 -233.6,-283.7 -262.8,-512 z m 680.8,96.7 c -100.1,-79.4 -244.5,-126.4 -421.7,-136.7 -152.3,-8.9 -273.2,11.7 -278.3,12.6 l -13.9,2.4 1.6,14.1 c 28.2,243.9 121.4,427.8 276.2,546.9 248,190.2 562.8,146.3 576,144.3 l 10.6,-1.5 2,-10.5 c 45,-233.7 7.5,-413.8 -111.6,-535 -12.7,-12.9 -26.3,-25.1 -40.9,-36.6"
         style="fill:#00ccbe;fill-opacity:1;fill-rule:nonzero;stroke:none"
         id="path122" /><path
         d="m 18288.5,5661.5 c 126.9,619.6 659.9,542.8 659.9,542.8 54,-666.3 -659.9,-542.8 -659.9,-542.8"
         style="fill:#00ccbe;fill-opacity:1;fill-rule:nonzero;stroke:none"
         id="path124" /><path
         d="m 17170.3,6807.85 c 630.2,-53.73 616,-592.05 616,-592.05 -655.4,-131.4 -616,592.05 -616,592.05"
         style="fill:#00ccbe;fill-opacity:1;fill-rule:nonzero;stroke:none"
         id="path126" /><path
         d="m 18912.9,8647.45 c -52.1,-376.58 -374.8,-351.09 -374.8,-351.09 -58.2,397.61 374.8,351.09 374.8,351.09"
         style="fill:#00ccbe;fill-opacity:1;fill-rule:nonzero;stroke:none"
         id="path128" /><path
         d="m 18542.7,9024.29 c 176.8,-185.48 28,-345.07 28,-345.07 -234.2,136.1 -28,345.07 -28,345.07"
         style="fill:#00ccbe;fill-opacity:1;fill-rule:nonzero;stroke:none"
         id="path130" /><path
         d="m 4868.47,11731.8 c 454.27,-312.5 211.32,-714.3 211.32,-714.3 -553.28,183.2 -211.32,714.3 -211.32,714.3"
         style="fill:#00ccbe;fill-opacity:1;fill-rule:nonzero;stroke:none"
         id="path132" /><path
         d="m 4139.14,11497 c 355.47,108.6 465.56,-188.1 465.56,-188.1 -328.76,-215.1 -465.56,188.1 -465.56,188.1"
         style="fill:#00ccbe;fill-opacity:1;fill-rule:nonzero;stroke:none"
         id="path134" /><path
         d="m 5062.73,11043.3 c 8.04,31.4 26.85,123.6 5.01,230.4 -35.03,171.4 -153.29,299.7 -351.55,381.7 -17.65,-58.4 -73.34,-276.1 21.11,-435 1.69,-2.9 3.41,-5.7 5.2,-8.5 60.84,-95.5 168.53,-152.2 320.23,-168.6 z m -24.41,389.5 c 26.68,-44.9 47.31,-96.1 59.09,-154.4 28.06,-139.1 -7.83,-251.3 -9.37,-256 l -3.73,-11.4 -11.91,1.2 c -168.03,15.5 -287.56,77.3 -355.28,183.7 -1.96,3.1 -3.88,6.2 -5.74,9.3 -116.63,196.2 -22.77,463.7 -18.66,475.2 l 5.23,14.5 14.39,-5.6 c 112.22,-44.2 246.15,-122.2 325.98,-256.5"
         style="fill:#000061;fill-opacity:1;fill-rule:nonzero;stroke:none"
         id="path136" /><path
         d="m 4070.83,11277 c 27.77,-39 118.57,-153.1 238.46,-165.6 73.32,-7.7 146.07,23.9 216.37,93.8 -34.29,44.6 -189.44,216.1 -454.83,71.8 z m 493.51,-75 -8.28,-8.6 c -79.8,-83.3 -163.92,-120.9 -250.03,-111.9 -158.86,16.7 -265.08,185.5 -269.53,192.7 l -8.14,13.1 13.39,7.8 c 330.24,190.8 514.19,-80.3 516,-83.1 l 6.59,-10"
         style="fill:#000061;fill-opacity:1;fill-rule:nonzero;stroke:none"
         id="path138" /><path
         d="m 11789.8,12290 c 395.5,-294.5 165,-645.4 165,-645.4 -488.3,182.2 -165,645.4 -165,645.4"
         style="fill:#000061;fill-opacity:1;fill-rule:nonzero;stroke:none"
         id="path140" /><path
         d="m 17541.3,7348.07 c 317,-262.3 109.9,-544.88 109.9,-544.88 -399.2,172.72 -109.9,544.88 -109.9,544.88"
         style="fill:#000061;fill-opacity:1;fill-rule:nonzero;stroke:none"
         id="path142" /><path
         d="m 12421.5,12174.8 c 24,-30.3 18.9,-74.4 -11.4,-98.4 -30.3,-24 -74.3,-18.8 -98.3,11.5 -24,30.3 -18.9,74.3 11.4,98.3 30.3,24 74.3,18.9 98.3,-11.4"
         style="fill:#00ccbe;fill-opacity:1;fill-rule:nonzero;stroke:none"
         id="path144" /><path
         d="m 5184.22,6987.19 c -449.12,-101.35 -531.64,327.2 -531.64,327.2 435.03,253.36 531.64,-327.2 531.64,-327.2"
         style="fill:#00ccbe;fill-opacity:1;fill-rule:nonzero;stroke:none"
         id="path146" /><path
         d="m 5164.2,7034.89 c -0.15,58.72 -9.52,282.52 -138.78,380.09 -70.04,52.87 -165.53,60.9 -283.92,23.9 1.73,-40.59 15.2,-188.9 119.24,-293.1 72.64,-72.75 174.69,-110.03 303.46,-110.89 z m -452.76,425.74 10.1,3.34 c 133.23,44.11 241.57,35.67 322.03,-25.09 67.14,-50.73 114.44,-139.61 136.74,-257.07 16.67,-87.63 13.82,-159.49 13.7,-162.5 l -0.61,-14.15 -14.17,-0.21 c -144.23,-2.06 -258.6,38.26 -339.93,119.84 -129.92,130.34 -128.18,317.31 -128.04,325.21 l 0.18,10.63"
         style="fill:#00ccbe;fill-opacity:1;fill-rule:nonzero;stroke:none"
         id="path148" /><path
         d="m 4545.85,6657.47 c 139.82,249.64 359.01,143.27 359.01,143.27 -68.28,-294.64 -359.01,-143.27 -359.01,-143.27"
         style="fill:#000061;fill-opacity:1;fill-rule:nonzero;stroke:none"
         id="path150" /><path
         d="m 4564.84,7029.62 c 15.64,16.08 41.36,16.44 57.44,0.8 16.08,-15.65 16.44,-41.36 0.79,-57.44 -15.64,-16.09 -41.35,-16.44 -57.43,-0.8 -16.09,15.64 -16.44,41.35 -0.8,57.44"
         style="fill:#00ccbe;fill-opacity:1;fill-rule:nonzero;stroke:none"
         id="path152" /><path
         d="m 18366.2,7746.29 c 21.4,-47.91 -0.1,-104.09 -48,-125.48 -47.9,-21.4 -104.1,0.1 -125.5,48.01 -21.4,47.91 0.1,104.08 48,125.48 47.9,21.39 104.1,-0.11 125.5,-48.01"
         style="fill:#00ccbe;fill-opacity:1;fill-rule:nonzero;stroke:none"
         id="path154" /><path
         d="m 17083.2,12988.9 c 0,-80.5 -65.3,-145.8 -145.8,-145.8 -80.5,0 -145.8,65.3 -145.8,145.8 0,80.5 65.3,145.8 145.8,145.8 80.5,0 145.8,-65.3 145.8,-145.8"
         style="fill:#ffb149;fill-opacity:1;fill-rule:nonzero;stroke:none"
         id="path156" /><path
         d="m 13549.8,12277.1 c 0,0 102.5,306.2 514.4,234.5 0,0 -158.7,-356.2 -514.4,-234.5"
         style="fill:#00ccbe;fill-opacity:1;fill-rule:nonzero;stroke:none"
         id="path158" /><path
         d="m 14055.4,12804.5 c 0,0 209.2,98.5 97.5,368.8 0,0 -234.5,-148.1 -97.5,-368.8"
         style="fill:#00ccbe;fill-opacity:1;fill-rule:nonzero;stroke:none"
         id="path160" /><path
         d="m 14151.8,12683.3 c 0,0 62.2,120.3 225.7,36.1 0,0 -61.1,-136.7 -225.7,-36.1"
         style="fill:#00ccbe;fill-opacity:1;fill-rule:nonzero;stroke:none"
         id="path162" /><path
         d="m 18635,7202.86 c 0,0 252.4,-140.48 496.3,147.84 0,0 -327,132.58 -496.3,-147.84"
         style="fill:#000061;fill-opacity:1;fill-rule:nonzero;stroke:none"
         id="path164" /><path
         d="m 18555.9,7028.14 c 0,0 181.8,18.27 190,-197.98 0,0 -200.4,-30.33 -190,197.98"
         style="fill:#000061;fill-opacity:1;fill-rule:nonzero;stroke:none"
         id="path166" /><path
         d="m 18029.1,9335.71 c 0,0 -18.9,238.72 240.7,300.69 0,0 -1.2,-288.35 -240.7,-300.69"
         style="fill:#00ccbe;fill-opacity:1;fill-rule:nonzero;stroke:none"
         id="path168" /><path
         d="m 18189.2,9835.86 c 0,0 97,124.47 -38,280.44 0,0 -99,-165.43 38,-280.44"
         style="fill:#00ccbe;fill-opacity:1;fill-rule:nonzero;stroke:none"
         id="path170" /><path
         d="m 18276.8,9778.4 c 0,0 5.4,99.72 122.7,85.95 0,0 -0.5,-110.77 -122.7,-85.95"
         style="fill:#00ccbe;fill-opacity:1;fill-rule:nonzero;stroke:none"
         id="path172" /><path
         d="m 21364,4565.5 c 0,0 7.4,432.1 484.9,498.4 0,0 -52.2,-517.7 -484.9,-498.4"
         style="fill:#00ccbe;fill-opacity:1;fill-rule:nonzero;stroke:none"
         id="path174" /><path
         d="m 21637.4,5236.6 c 0,0 244.7,258.1 -24.4,636.9 0,0 -258.1,-349.4 24.4,-636.9"
         style="fill:#00ccbe;fill-opacity:1;fill-rule:nonzero;stroke:none"
         id="path176" /><path
         d="m 21886.1,5317.8 c 0,0 27.1,178.1 235.7,133.1 0,0 -20.1,-198.9 -235.7,-133.1"
         style="fill:#00ccbe;fill-opacity:1;fill-rule:nonzero;stroke:none"
         id="path178" /><path
         d="m 21939.5,5069.1 c -176.8,-30.7 -304.4,-117.4 -379.3,-258 -43.9,-82.3 -56.7,-161.2 -60.4,-196.9 160.9,-0.7 283.8,77.2 365.5,231.8 47.1,89 66.9,179.9 74.2,223.1 z m -480.9,-477.8 c -0.2,1.2 -0.3,2.5 -0.3,3.7 0.1,4.5 13.4,450 502.1,517.9 6.1,0.8 12.3,-1.2 16.7,-5.4 4.4,-4.3 6.6,-10.3 6,-16.4 -0.5,-5.5 -14.2,-134.8 -82.4,-263.8 -91.7,-173.5 -238.1,-260.8 -423.3,-252.6 -9.5,0.5 -17.3,7.5 -18.8,16.6"
         style="fill:#00ccbe;fill-opacity:1;fill-rule:nonzero;stroke:none"
         id="path180" /><path
         d="m 21756.1,5874 c -20.5,-33.5 -56,-99.4 -75,-180.6 -34.9,-148.7 -1.9,-279.9 98.1,-390.3 45.3,59.3 174.6,271.9 -23.1,570.9 z M 21635,5505.2 c -37.6,219.8 102.6,413.9 104.6,416.6 3.8,5.1 9.9,8.2 16.3,8.1 6.4,-0.1 12.4,-3.2 16.1,-8.4 275.4,-387.8 25.2,-659.6 22.6,-662.3 -3.7,-3.9 -8.9,-6.1 -14.3,-6.2 -5.5,0 -10.7,2.1 -14.5,6 -78.6,80 -116.9,164.9 -130.8,246.2"
         style="fill:#00ccbe;fill-opacity:1;fill-rule:nonzero;stroke:none"
         id="path182" /><path
         d="m 22212.8,5464.1 c -53.3,8.3 -97.2,0.8 -130.7,-22.2 -34.9,-24.1 -50.8,-59.9 -57.5,-80.9 53.6,-13.1 97.2,-8.8 129.9,12.9 37.1,24.7 52.4,66.4 58.3,90.2 z m -232.1,-120.6 c -0.3,2.1 -0.4,4.3 0,6.4 0.4,3.3 12.7,79.4 78.7,124.9 46.8,32.3 107.7,40.6 181,24.8 9.9,-2.2 16.7,-11.5 15.6,-21.6 -0.3,-3.7 -10,-91.3 -79.4,-137.4 -46.7,-31.1 -108,-35.4 -182,-12.8 -7.4,2.2 -12.6,8.5 -13.9,15.7"
         style="fill:#00ccbe;fill-opacity:1;fill-rule:nonzero;stroke:none"
         id="path184" /><path
         d="m 22630.9,5270.7 c -52.8,-16.6 -109,12.8 -125.6,65.6 -16.6,52.8 12.8,109 65.6,125.5 52.8,16.6 109.1,-12.7 125.6,-65.5 16.6,-52.8 -12.8,-109 -65.6,-125.6"
         style="fill:#ffb149;fill-opacity:1;fill-rule:nonzero;stroke:none"
         id="path186" /><path
         d="m 12026.3,8161.18 c 27.9,-30.95 50.8,-64.91 71.9,-100.23 5.5,-8.71 10.6,-17.65 15.4,-26.68 l 14.9,-27.06 c 9.2,-18.34 18.5,-36.71 27.4,-55.3 l 24.8,-56.55 22.6,-57.47 c 7.2,-19.33 13.2,-38.94 19.8,-58.45 3.2,-9.78 6.7,-19.53 9.6,-29.37 l 8.6,-29.6 8.9,-29.62 c 2.9,-9.88 6.6,-19.65 9.1,-29.6 l 17.2,-59.55 c 2.4,-10.01 5.3,-19.98 7.5,-30.05 1.9,-10.09 3.7,-20.21 5.2,-30.38 3,-20.33 5,-40.83 6.2,-61.38 1.5,-41.16 -0.4,-82.56 -4.3,-123.82 -5.8,-41.34 -13.6,-82.63 -28,-123.72 l -12,-0.61 c -19.9,39.15 -33.2,78.09 -44.5,116.98 -12.6,38.69 -22,77.39 -30.2,116.05 -4.5,19.26 -8.2,38.58 -10.8,58.05 -2.7,19.48 -4,39.16 -6.2,58.69 l -4.3,59.16 c -1.6,19.74 -4.7,39.15 -7.4,58.72 l -4.4,29.3 c -1.6,9.74 -3.6,19.35 -5.4,29.05 -3.8,19.31 -7,38.88 -11.3,58.1 l -12.4,57.97 -14.6,57.47 c -5.2,19.07 -10.8,38.03 -16.3,57.13 -6.4,18.65 -12.1,37.78 -19,56.33 -3.5,9.28 -6.7,18.7 -10.3,27.95 l -11.4,27.59 c -7.9,18.05 -16,36.73 -25.8,53.5 l 9.5,7.4"
         style="fill:#ffffff;fill-opacity:1;fill-rule:nonzero;stroke:none"
         id="path188" /><path
         d="m 12113.9,3996 h -1620.2 l 414.3,640 1205.9,1862.8 z m 470,0 v 3370.04 h -470 v -2.4 L 10635.7,5080.1 9933.92,3996 V 3526 H 12113.9 V 2166 h 470 v 1360 h 400 v 470 h -400"
         style="fill:#ff5776;fill-opacity:1;fill-rule:nonzero;stroke:none"
         id="path190" /><path
         d="m 8052.64,3099.5 c -1.55,0 -2.74,0 -3.54,0.1 l 5.04,59.8 -2.52,-29.9 1.96,29.9 c 0.55,0 1.22,0 1.98,0 70.34,0 1017.21,83.5 1548.3,343 l 26.35,-53.9 c -549.46,-268.5 -1502,-349 -1577.57,-349"
         style="fill:#ffb149;fill-opacity:1;fill-rule:nonzero;stroke:none"
         id="path192" /><path
         d="m 16130,12091.2 c -3.8,-16.3 -9,-31.8 -14.5,-47.1 -5.6,-15.3 -11.8,-30.3 -18.2,-45.1 -6.5,-14.8 -13.5,-29.3 -21,-43.6 -7.5,-14.2 -16,-27.9 -24.7,-41.5 l -2,-3.1 -0.9,-0.8 c -18.6,-17 -36.9,-34.2 -55,-51.7 -18.1,-17.4 -36.2,-34.8 -54.6,-52 l -55.2,-51.5 c -18.4,-17.2 -36.8,-34.3 -55.5,-51.1 l -2.9,2.7 c 15.9,19.5 32.1,38.8 48.3,58 l 48.7,57.6 c 16.3,19.2 32.8,38.2 49.4,57.1 16.6,18.9 32.9,38.1 48.9,57.5 l -2.9,-4 c 6.9,14.6 14,29.1 22.1,43 8.1,13.8 16.7,27.5 25.8,40.8 9.1,13.4 18.5,26.5 28.5,39.4 10.1,12.8 20.5,25.5 32.3,37.3 l 3.4,-1.9"
         style="fill:#ffffff;fill-opacity:1;fill-rule:nonzero;stroke:none"
         id="path194" /><path
         d="m 16230,11869.6 c -3.9,-16.3 -9.1,-31.7 -14.5,-47.1 -5.7,-15.3 -11.8,-30.3 -18.3,-45.1 -6.5,-14.8 -13.5,-29.3 -21,-43.5 -7.4,-14.3 -15.9,-28 -24.6,-41.5 l -2.1,-3.2 -0.9,-0.8 c -18.6,-17 -36.9,-34.2 -55,-51.7 -18,-17.4 -36.2,-34.8 -54.6,-52 l -55.1,-51.5 c -18.5,-17.2 -36.9,-34.3 -55.6,-51.1 l -2.9,2.7 c 15.9,19.5 32.1,38.8 48.3,58 l 48.8,57.7 c 16.2,19.1 32.7,38.1 49.3,57 16.6,18.9 32.9,38.1 48.9,57.5 l -2.9,-4 c 6.9,14.6 14,29.1 22.1,43 8.1,13.9 16.7,27.5 25.8,40.9 9.1,13.3 18.5,26.5 28.5,39.3 10.1,12.8 20.5,25.5 32.3,37.4 l 3.5,-2"
         style="fill:#ffffff;fill-opacity:1;fill-rule:nonzero;stroke:none"
         id="path196" /><path
         d="m 15374.8,11725.7 c 9.6,34.1 18.6,68.3 25.9,102.8 7.6,34.4 14.3,69 20.2,103.6 2.9,17.2 4.6,34.7 6.4,52.1 1.7,17.4 4.3,34.6 7.6,51.7 7.4,34.2 13.9,68.3 26,103.4 l 4,-0.1 c 4.8,-17.8 8.4,-36 9.3,-54.1 0.8,-9.1 1.3,-18.2 1.3,-27.2 -0.1,-9.1 -0.4,-18.1 -0.9,-27.1 -1.1,-18.1 -4,-35.9 -8.3,-53.4 -4.5,-17.5 -9.4,-34.8 -14.2,-52.1 -9.2,-34.7 -19.9,-68.9 -32.2,-102.4 -12.6,-33.5 -25.7,-66.6 -41.4,-98.7 l -3.7,1.5"
         style="fill:#ffffff;fill-opacity:1;fill-rule:nonzero;stroke:none"
         id="path198" /><path
         d="m 13481.8,10203.1 c 17.3,-11.9 27.8,-23.9 36.4,-35.8 8.4,-11.9 14.1,-23.8 17.6,-35.7 3.7,-11.9 3.3,-23.8 -0.6,-35.7 -3.8,-11.9 -9,-23.8 -11.4,-35.7 -4.8,-23.8 -10.8,-47.6 -18,-71.47 -7.3,-23.81 -14.5,-47.62 -24,-71.44 h -11.9 c -9.5,23.82 -16.7,47.63 -24.1,71.44 -7.1,23.87 -13.1,47.67 -18,71.47 -2.3,11.9 -7.5,23.8 -11.4,35.7 -3.8,11.9 -4.2,23.8 -0.6,35.7 3.6,11.9 9.3,23.8 17.6,35.7 8.6,11.9 19.2,23.9 36.5,35.8 h 11.9"
         style="fill:#ffffff;fill-opacity:1;fill-rule:nonzero;stroke:none"
         id="path200" /><path
         d="m 6806.12,10099.6 c -11.85,-17.2 -23.72,-27.9 -35.6,-36.5 -11.87,-8.4 -23.76,-14.2 -35.65,-17.8 -11.9,-3.6 -23.81,-3.3 -35.73,0.5 -11.92,3.8 -23.84,9 -35.76,11.3 -23.83,4.7 -47.66,10.7 -71.5,17.7 -23.84,7.3 -47.68,14.4 -71.53,23.8 l -0.04,12 c 23.78,9.6 47.57,16.8 71.36,24.2 23.79,7.3 47.58,13.4 71.37,18.3 11.9,2.4 23.79,7.6 35.68,11.5 11.9,3.9 23.8,4.3 35.72,0.7 11.92,-3.4 23.85,-9.1 35.78,-17.4 11.94,-8.6 23.88,-19.1 35.85,-36.3 l 0.05,-12"
         style="fill:#ffffff;fill-opacity:1;fill-rule:nonzero;stroke:none"
         id="path202" /><path
         d="m 10418.6,7425.68 c -3.8,0 -7.5,1.46 -10.3,4.11 -864.75,820.07 -1516.58,2081.76 -1523.06,2094.41 l 26.7,13.68 c 6.42,-12.52 648.72,-1255.63 1502.36,-2072.4 84.5,168.45 728.5,1477.1 770.8,2284.11 l 29.9,-1.57 c -45.3,-865.81 -775.7,-2299.8 -783,-2314.18 -2.2,-4.2 -6.2,-7.15 -10.9,-7.94 -0.8,-0.15 -1.6,-0.22 -2.5,-0.22"
         style="fill:#ffffff;fill-opacity:1;fill-rule:nonzero;stroke:none"
         id="path204" /><path
         d="m 8573.58,3996 -174.56,-272.3 h 369.05 z"
         style="fill:#ffffff;fill-opacity:1;fill-rule:nonzero;stroke:none"
         id="path206" /><path
         d="m 9669.72,5134.4 -174.56,-272.3 h 369.05 z"
         style="fill:#ffffff;fill-opacity:1;fill-rule:nonzero;stroke:none"
         id="path208" /><path
         d="m 8888.62,6215.4 -174.56,-272.3 h 369.05 z"
         style="fill:#ffffff;fill-opacity:1;fill-rule:nonzero;stroke:none"
         id="path210" /><path
         d="m 10518.3,6163.8 -174.6,-272.3 h 369.1 z"
         style="fill:#ffffff;fill-opacity:1;fill-rule:nonzero;stroke:none"
         id="path212" /><path
         d="m 9739.43,7181.91 -174.56,-272.36 h 369.05 z"
         style="fill:#ffffff;fill-opacity:1;fill-rule:nonzero;stroke:none"
         id="path214" /><path
         d="M 8179.66,9306.27 8005.1,9033.91 h 369.05 z"
         style="fill:#ffffff;fill-opacity:1;fill-rule:nonzero;stroke:none"
         id="path216" /><path
         d="m 11420.1,7233.51 -174.6,-272.37 h 369.1 z"
         style="fill:#ffffff;fill-opacity:1;fill-rule:nonzero;stroke:none"
         id="path218" /><path
         d="M 11447.6,8659.63 11273,8387.26 h 369 z"
         style="fill:#ffffff;fill-opacity:1;fill-rule:nonzero;stroke:none"
         id="path220" /><path
         d="M 12011.6,9826.7 11837,9554.33 h 369.1 z"
         style="fill:#ffffff;fill-opacity:1;fill-rule:nonzero;stroke:none"
         id="path222" /><path
         d="M 8985.95,8293.66 8811.39,8021.3 h 369.06 z"
         style="fill:#ffffff;fill-opacity:1;fill-rule:nonzero;stroke:none"
         id="path224" /><path
         d="m 7485.72,9788.75 c 9.88,2.72 18.79,0.08 27.24,-3.24 8.45,-3.51 15.58,-8.9 22.48,-14.47 13.45,-11.51 24.18,-25.3 34.1,-39.39 19.26,-28.62 33.53,-59.55 45.74,-90.93 24.88,-62.79 40.57,-127.87 53.93,-192.98 12.65,-65.27 20.57,-131.09 25.71,-196.99 4.15,-65.96 7.9,-131.81 10.13,-197.63 5.17,-131.61 6.27,-263.1 5.29,-394.47 -2.15,-131.39 -6.11,-262.63 -12.54,-393.74 l -6,0.09 c -3.16,131.2 -5.54,262.29 -11.45,393.22 -5.03,130.91 -12.11,261.69 -23.2,391.9 -10.67,130.32 -30.42,259.31 -47.1,387.63 l -7.01,48 -8.09,47.72 c -2.87,15.82 -5.85,31.66 -9.05,47.42 -3.76,15.53 -6.64,31.46 -10.78,46.85 -7.89,30.96 -16.57,61.89 -29.49,90.51 -6.33,14.35 -13.73,28.15 -22.92,40.43 -4.7,5.93 -9.74,11.84 -15.77,16.13 -5.69,4.41 -13.08,8.18 -19.6,8.16 l -1.62,5.78"
         style="fill:#ffffff;fill-opacity:1;fill-rule:nonzero;stroke:none"
         id="path226" /><path
         d="m 12546.6,9992.13 c -0.9,-1.47 -1.8,-3.51 -2.7,-5.52 -0.8,-2.01 -1.8,-3.82 -2.3,-6.06 l -3.7,-12.68 c -1.7,-8.84 -3.6,-17.47 -5.1,-26.24 l -3.2,-26.66 c -1.4,-8.73 -1.3,-17.93 -2,-26.84 l -1.8,-26.78 -0.4,-27.04 c -0.2,-18.02 -1.3,-35.83 -0.5,-53.95 0.4,-18.05 0.7,-36.05 0.7,-54.03 0.3,-18 1.5,-36.09 2.2,-54.11 l 2,-54.07 3.5,-54.13 c 9.4,-144.16 13.7,-289.32 27.1,-434.09 l 9.7,-108.59 c 3.6,-36.17 7.8,-72.3 11.7,-108.46 l 11.9,-108.48 c 4.1,-36.14 9,-72.2 13.5,-108.32 9,-72.23 16.9,-144.65 27.2,-216.73 l 29.2,-216.61 -6,-1.01 c -28.1,143.02 -55.7,286.2 -80.1,430.03 -6,35.97 -12.3,71.89 -18,107.92 l -16.4,108.21 c -5.3,36.1 -11.1,72.14 -16.1,108.29 l -14.3,108.62 c -10.4,72.31 -17.7,145.1 -26.6,217.77 -4.1,36.36 -6.3,72.99 -8.8,109.52 -1,18.3 -2.4,36.56 -3.1,54.88 l -0.9,55.08 -0.1,55.07 c 0.3,18.38 0.9,36.81 1.6,55.2 1,18.4 1.5,36.74 2.8,55.14 1.5,18.42 3.3,36.81 5.1,55.15 1.5,18.33 4.5,36.73 7.4,55.01 l 4.4,27.37 6,27.28 c 3.8,18.11 9.4,36.11 15.2,53.78 3.3,8.8 7.1,17.48 10.7,26.06 4.8,8.42 8.6,16.62 16,24.28 l 4.2,-4.26"
         style="fill:#ffffff;fill-opacity:1;fill-rule:nonzero;stroke:none"
         id="path228" /><path
         d="m 10020.9,12158.9 c 62.9,-4.4 123.9,-2.7 183.1,6.4 59.1,9.1 116.1,25.3 170,48 106.9,46.6 206.1,112.5 281.6,207.6 75.7,93.2 128.3,205.3 159.6,323.8 32.3,118.6 42.9,243.3 42.3,368 l 8,0.4 c 6.6,-62.3 9.6,-125.3 7.8,-188.3 -1.6,-63.1 -7.6,-126.3 -19.1,-189 -11.9,-62.5 -29.4,-124.4 -53.6,-184.2 -24.6,-59.5 -56.1,-116.6 -94,-169.4 -8.9,-13.6 -19.4,-26 -29.4,-38.8 l -15.1,-19.2 -16.3,-18.5 c -5.5,-6.1 -10.6,-12.5 -16.4,-18.4 l -17.6,-17.5 c -11.4,-12 -24.1,-22.6 -36.7,-33.5 -50.8,-42.7 -109.6,-76.5 -172.7,-97.8 -125.8,-42.4 -266.9,-40.8 -383.6,12.7 l 2.1,7.7"
         style="fill:#ff5776;fill-opacity:1;fill-rule:nonzero;stroke:none"
         id="path230" /><path
         d="m 8675.69,12683.9 c -18.17,23.1 -30.03,48.9 -39.3,75.5 -9.03,26.6 -14.97,54.1 -17.83,82.1 -2.91,27.9 -1.62,56.3 3.73,84.1 5.41,27.7 13.08,54.9 21.31,81.7 8.37,26.8 18.01,53.2 30.34,78.3 12.66,24.9 26.46,49.2 42.94,71.5 32.42,44.9 72.78,83.1 117.23,113.1 l 5.18,-6.1 c -35.62,-39.1 -66.38,-81.4 -88.16,-127.7 -11.57,-22.7 -20.27,-46.6 -27.81,-70.6 -7.96,-23.9 -13.27,-48.5 -17.44,-73.2 -4.23,-24.7 -5.1,-49.9 -4.78,-74.9 0.12,-25 -0.62,-49.7 -2.55,-74.7 -4.03,-50.2 -7.05,-101 -15.19,-156.8 l -7.67,-2.3"
         style="fill:#ff5776;fill-opacity:1;fill-rule:nonzero;stroke:none"
         id="path232" /><path
         d="m 10373.5,12508.8 c 27.5,36.2 53.4,72.4 76.6,110 11.3,19 23,37.6 32.9,57.1 10.4,19.4 20.4,38.8 29,58.8 9.1,19.8 17.5,39.9 25.3,60.2 4.1,10.1 7.8,20.3 11.5,30.5 3.2,10.1 7.2,19.9 9.7,30.2 12.1,40.6 16.9,83.5 14.2,126.2 -5.3,85.5 -40.4,169.9 -99.4,234.2 -14.7,16.1 -30.7,31.1 -48,44.5 -17.5,13.3 -36.1,25.1 -55.7,35.3 -19.7,9.9 -40.3,18 -61.6,24.5 -21.3,6.4 -43.2,10.6 -65.4,13.4 l 0.3,5 c 22.7,-1 45.4,-3.4 67.8,-8.1 22.3,-5.1 44.2,-11.9 65.5,-20.8 21.1,-9.2 41.4,-20.2 60.8,-32.8 19.3,-12.8 37.3,-27.6 54.2,-43.6 66.7,-65 110.2,-153.9 121.3,-247.8 2.8,-23.5 4.2,-47.3 2.8,-71 -1.1,-23.7 -3.6,-47.6 -8.8,-70.9 -1.1,-5.9 -2.5,-11.7 -4.2,-17.4 -1.6,-5.8 -3,-11.7 -4.9,-17.3 -3.7,-11 -7.2,-22.1 -11.5,-32.9 -4.2,-10.9 -8.8,-21.6 -13.5,-32.3 -5.2,-10.4 -10,-21 -15.6,-31.2 -22,-41 -48.1,-79.7 -78.3,-114.7 -30.1,-35 -63.9,-66.6 -101.5,-92.7 l -3.5,3.6"
         style="fill:#ffffff;fill-opacity:1;fill-rule:nonzero;stroke:none"
         id="path234" /><path
         d="m 9927.54,12339.8 c 28.74,1.3 57.5,1.3 85.86,2 14.2,0.3 28.3,0.6 42.1,1.7 6.9,0.4 13.7,0.9 20.4,1.8 6.7,0.6 13.3,1.8 19.8,3 6.5,1 12.7,3.1 18.9,4.9 6.1,2.4 12.1,4.4 17.9,7.2 l 17.7,7.6 c 5.9,2.4 12,4.5 18.2,6.9 25,8.7 51.1,19.1 82.3,24.2 l 2.9,-4.1 c -15.4,-27.7 -37.2,-48.6 -63.4,-65 -13,-8.3 -28,-13.9 -43.5,-17 -7.7,-1.6 -15.7,-2.2 -23.5,-3.3 -7.8,-0.2 -15.6,-1.3 -23.3,-1.2 -7.7,-0.2 -15.4,-0.4 -22.9,0.2 -7.5,0.2 -14.9,0.8 -22.3,1.6 -14.7,1.7 -29.1,4.1 -43.3,6.6 -28.37,5.5 -56.3,11.4 -84.32,17.9 l 0.46,5"
         style="fill:#ffffff;fill-opacity:1;fill-rule:nonzero;stroke:none"
         id="path236" /><path
         d="m 6893.22,11230.7 c -4.6,0 -9,2.1 -11.87,5.8 l -230.01,298 23.75,18.3 212.19,-274.9 166.59,552.5 c 1.59,5.3 5.94,9.2 11.33,10.4 5.39,1.1 10.95,-0.9 14.5,-5.1 l 213.25,-252.9 -22.94,-19.4 -195.4,231.8 -167.03,-553.8 c -1.62,-5.4 -6.11,-9.5 -11.64,-10.5 -0.91,-0.1 -1.82,-0.2 -2.72,-0.2"
         style="fill:#000061;fill-opacity:1;fill-rule:nonzero;stroke:none"
         id="path238" /><path
         d="m 14255.8,10523.7 c -4.2,0 -8.4,1.8 -11.3,5.1 l -197.7,227.6 22.6,19.7 179.4,-206.5 120.1,434.9 c 1.4,5.2 5.5,9.3 10.8,10.6 5.2,1.3 10.8,-0.3 14.5,-4.3 l 182.7,-192.6 -21.8,-20.7 -164.4,173.4 -120.4,-436.2 c -1.5,-5.4 -5.7,-9.5 -11.1,-10.7 -1.1,-0.2 -2.2,-0.3 -3.4,-0.3"
         style="fill:#000061;fill-opacity:1;fill-rule:nonzero;stroke:none"
         id="path240" /><path
         d="m 10785.1,11965.3 c -17,-5.2 -32.3,-15.7 -44.9,-28.1 -3.2,-3 -5.9,-6.6 -8.9,-9.8 l -4.4,-5 -3.8,-5.5 -7.4,-10.9 c -2.4,-3.7 -4.2,-7.8 -6.3,-11.7 l -6.1,-11.7 -4.9,-12.4 -4.8,-12.3 c -1.3,-4.2 -2.4,-8.6 -3.5,-12.8 l -3.7,-12.8 -1.7,-6.4 -1.2,-6.6 -4.7,-26.3 c -1.4,-8.8 -1.6,-17.8 -2.2,-26.7 -0.4,-9 -1.6,-17.8 -1,-26.9 0,-9 -0.1,-17.9 -0.5,-26.8 -0.6,-9 -1.4,-17.9 -1.5,-26.9 -0.6,-18.1 -3.1,-36.2 -4.5,-54.5 -1.3,-18.4 -3.4,-36.9 -7.7,-55.9 l -4,-0.4 c -7.1,17.8 -12.1,36.2 -16.3,54.7 -2.6,9.2 -3.6,18.6 -4.7,28 -1.2,9.4 -2,18.8 -2.8,28.3 -0.2,4.7 -0.7,9.4 -0.7,14.2 l 0.6,14.2 c 0.6,9.6 1.5,19 2.6,28.5 0.9,9.4 3.6,18.8 5.3,28.2 2.2,9.4 3.5,18.8 6,28.1 9.1,37.1 22.9,73.8 45,105.7 2.9,4 5.4,8 8.6,11.7 l 9.7,10.8 4.9,5.3 5.5,4.8 c 3.8,3.1 7.2,6.5 11.1,9.2 15.5,11.6 33.2,20.2 52.4,22.7 l 0.5,-4"
         style="fill:#000061;fill-opacity:1;fill-rule:nonzero;stroke:none"
         id="path242" /><path
         d="m 8280.38,11391.4 c 42.07,9 86.41,6.1 128.55,-6.6 20.98,-6.7 41.27,-16.2 59.97,-28.4 18.61,-12.4 35.5,-27.4 50.41,-44.1 29.91,-33.3 54.01,-72.9 64.73,-116 2.65,-10.7 4.66,-21.6 6.55,-32.4 1.06,-10.9 2.74,-21.7 3.13,-32.6 0.34,-10.9 0.44,-21.9 0.03,-32.7 -0.94,-10.9 -1.83,-21.7 -3.71,-32.5 l -3.99,-0.3 c -14.67,41 -25.44,80.8 -40.18,118.5 l -5.45,14.1 c -1.66,4.8 -3.44,9.4 -5.48,14 -1.92,4.6 -3.61,9.3 -5.42,13.9 l -5.93,13.7 c -7.71,18.3 -17.11,36.1 -29.03,52 -23.7,31.7 -55.39,57.8 -92.65,74 -37.02,16.6 -79.16,24 -120.79,21.5 l -0.74,3.9"
         style="fill:#000061;fill-opacity:1;fill-rule:nonzero;stroke:none"
         id="path244" /><path
         d="m 10537.8,10868.2 c -29.8,-11 -62.1,-17 -95.8,-17 -152.9,0 -276.9,124 -276.9,277 0,153 124,277 276.9,277 45.8,0 88.9,-11.1 126.9,-30.7 9.2,-171.4 1.4,-344.9 -31.1,-506.3"
         style="fill:#ff5776;fill-opacity:1;fill-rule:nonzero;stroke:none"
         id="path246" /><path
         d="m 9113.75,10786.2 c 0,-128.9 -88.1,-237.2 -207.3,-268.1 -104.1,153.6 -176,331 -225.5,497.2 44.4,30.2 98,47.9 155.8,47.9 152.9,0 277,-124 277,-277"
         style="fill:#ff5776;fill-opacity:1;fill-rule:nonzero;stroke:none"
         id="path248" /><path
         d="m 10521.6,11771.9 c 16.1,-30.2 28.6,-61.7 39.3,-93.8 10.8,-32 19.8,-64.6 27.2,-97.5 7.2,-33 12.5,-66.3 15.1,-100 1.6,-16.8 2.5,-33.7 3.4,-50.5 1,-16.9 2.4,-33.7 2.7,-50.6 4,-67.2 2.4,-134.8 -2.3,-201.9 l -5,-50.2 c -1.7,-16.7 -4.8,-33.3 -7.2,-49.9 -4.1,-33.3 -12.9,-65.9 -19.9,-98.6 l -4.9,1 c 7.9,66.2 13.4,132.3 12,198.6 0.6,16.5 -0.9,33.1 -1.2,49.6 -0.7,16.5 -1,33 -2.6,49.5 l -3.5,49.4 -5.3,49.3 c -1.6,16.4 -4.5,32.7 -6.8,49 -2.5,16.4 -5.2,32.6 -8.4,48.8 -5.8,32.5 -11.1,65 -15.3,97.7 -8.4,65.6 -17.2,131.1 -22.1,198.7 l 4.8,1.4"
         style="fill:#ffffff;fill-opacity:1;fill-rule:nonzero;stroke:none"
         id="path250" /><path
         d="m 8643.1,11246 c 11.52,-31.9 21.27,-63.7 30.77,-95.5 9.38,-31.8 18.62,-63.6 27.13,-95.4 8.78,-31.7 16.31,-63.7 23.31,-95.9 6.51,-32.3 14.23,-64.4 22.6,-96.3 l 13.3,-47.6 14.71,-47.3 c 4.56,-15.8 10.09,-31.4 15.39,-47 5.51,-15.6 10.21,-31.5 16.41,-46.7 22.02,-62.4 49.38,-122.6 78.46,-182.4 l -4.32,-2.5 c -17.35,28.3 -36.15,56.2 -51.38,85.9 -7.86,14.8 -16.34,29.2 -23.73,44.2 l -22.1,45.1 c -27.98,60.8 -53.72,122.9 -74.96,186.5 -5.93,15.7 -10.98,31.7 -16.36,47.6 -5.44,15.9 -10.96,31.8 -15.87,47.8 -10.25,32 -18.15,64.7 -24.24,97.7 -5.88,33 -10.27,66.3 -12.93,99.9 -2.75,33.5 -3.81,67.3 -1.15,101.3 l 4.96,0.6"
         style="fill:#ffffff;fill-opacity:1;fill-rule:nonzero;stroke:none"
         id="path252" /><path
         d="m 7098.42,10504.2 -28.96,27.6 c 7.82,8.2 784.7,827.1 1007.71,1352.7 3.42,8.1 11.67,12.9 20.4,12.1 l 310.04,-30.9 -3.97,-39.8 -295.48,29.4 c -97.12,-222.1 -294.9,-515.1 -588.1,-871.3 -222.42,-270.2 -419.68,-477.7 -421.64,-479.8"
         style="fill:#000061;fill-opacity:1;fill-rule:nonzero;stroke:none"
         id="path254" /><path
         d="m 8366.55,12200.5 c 0.05,-99.4 17.67,-193.3 57.25,-274.4 19.77,-40.5 43.58,-78.3 71.91,-113.8 28.13,-35.7 62.21,-67.8 100.63,-94.8 78.15,-52.4 168.15,-90.3 262.08,-116 93.81,-27 191.4,-42.3 289.64,-53.9 l -0.38,-8 -74.56,0.7 c -24.89,0.4 -49.68,2.7 -74.61,4 -49.75,3.6 -99.52,9.5 -149.09,18.2 -12.46,1.9 -24.73,4.7 -37.02,7.5 l -36.96,8.4 c -12.32,2.9 -24.37,6.9 -36.6,10.3 -12.13,3.8 -24.56,6.6 -36.48,11.2 -48.19,16.7 -95.24,37.8 -140.41,63.6 -44.5,26.9 -87.68,57.9 -125.4,96.1 -37.6,38.2 -67.76,84.8 -86.48,135.5 -19.2,50.5 -27.19,104.3 -26.04,156.8 1.8,52.5 11.69,104.3 34.82,150.8 l 7.7,-2.2"
         style="fill:#ff5776;fill-opacity:1;fill-rule:nonzero;stroke:none"
         id="path256" /><path
         d="m 14246.6,9813.87 -30.7,25.67 976.5,1167.06 c 3.1,3.8 7.6,6.2 12.6,6.9 3.8,0.6 387.8,55.5 471.7,207.3 l 35,-19.4 c -87.5,-158.3 -435.5,-217.5 -493.5,-226.4 l -971.6,-1161.13"
         style="fill:#000061;fill-opacity:1;fill-rule:nonzero;stroke:none"
         id="path258" /><path
         d="m 15715.6,2606.1 c -305.3,0 -600.6,209.8 -831.5,590.9 -180.8,298.4 -303.3,669.8 -357.9,1076.1 -15.9,118.3 -26,239.6 -30.2,362.9 -1.5,42.9 -2.3,86.1 -2.3,129.5 0,595.9 138.7,1153 390.4,1568.5 118.1,194.8 252.9,344.91 397.4,445 138.2,95.71 284.9,145.9 434.1,145.9 305.1,0 600.5,-209.79 831.4,-590.9 251.7,-415.5 390.4,-972.6 390.4,-1568.5 0,-427.9 -71.4,-835.7 -205,-1185.5 -52.5,-137.4 -114.4,-265.8 -185.4,-383 -83.8,-138.4 -176.2,-254.1 -274.2,-345.4 -73.9,-68.7 -151.1,-123.6 -230.4,-163.9 -105.9,-53.8 -215.8,-81.6 -326.8,-81.6 z M 16923.2,6562 c -313.7,517.8 -742.5,802.9 -1207.6,802.9 -149.4,0 -294.9,-29.39 -434.1,-86.5 -294.5,-120.5 -560.5,-364.8 -773.7,-716.4 -292.9,-483.3 -454.1,-1121.3 -454.1,-1796.5 0,-37.3 0.5,-74.4 1.6,-111.4 0.2,-6 0.3,-12.1 0.4,-18.1 19.2,-626.9 178,-1214.7 452.1,-1667 313.8,-517.8 742.8,-802.9 1207.8,-802.9 437.5,0 842.9,252.2 1150.5,713.1 19.5,29.1 38.6,59 57.1,89.8 25,41.1 49,83.4 72,126.7 83.5,157.2 154.3,328.3 211.2,509.7 111.8,355.6 171,751 171,1160.1 0,675.2 -161.3,1313.2 -454.2,1796.5"
         style="fill:#ff5776;fill-opacity:1;fill-rule:nonzero;stroke:none"
         id="path260" /><path
         d="m 13862.1,5069.6 c -19.7,-162.3 -29.8,-328.8 -29.8,-497.6 0,-37.2 0.5,-74.3 1.5,-111.3 0.2,-6.1 0.3,-12.1 0.5,-18.2 10.3,-336.2 60.8,-661.2 147.7,-960 z m 302.7,-2069 c 37.6,-78.2 78.2,-153.3 121.6,-225 196.2,-323.7 437.2,-556.4 704,-685.4 z"
         style="fill:none;stroke:#ff5776;stroke-width:50;stroke-linecap:butt;stroke-linejoin:miter;stroke-miterlimit:10;stroke-dasharray:none;stroke-opacity:1"
         id="path262" /><path
         d="m 13942.3,6983.95 c 0,0 127.3,445.51 646.3,383.98 0,0 -197.9,-522.05 -646.3,-383.98"
         style="fill:#000061;fill-opacity:1;fill-rule:nonzero;stroke:none"
         id="path264" /><path
         d="m 18114.9,3142.5 c -878.5,-87.5 -1429.2,-599 -1559.9,-733.2 606.5,-29.2 1000.6,175.8 1226,355.4 190.5,151.8 294.7,310.2 333.9,377.8 z M 16499,2371.9 c -4.4,2.2 -8.1,6 -10.1,10.7 -3.2,7.3 -1.9,15.8 3.4,21.9 6.1,7.1 152.9,176.3 431.6,358.9 257,168.3 678.5,378.7 1226.8,424.8 7.6,0.6 15,-2.8 19.4,-9 4.4,-6.2 5.1,-14.2 1.9,-21.1 -4.3,-8.9 -106.8,-221.3 -364,-426.3 -236.9,-188.8 -654.8,-404.8 -1300.8,-362.1 -2.9,0.2 -5.7,1 -8.2,2.2"
         style="fill:#00ccbe;fill-opacity:1;fill-rule:nonzero;stroke:none"
         id="path266" /><path
         d="m 17809,3465.4 c 0,0 -1262.2,167.2 -1420.5,-1126.5 0,0 966.7,708.9 970.8,722.7 4.2,13.9 449.7,403.8 449.7,403.8"
         style="fill:#000061;fill-opacity:1;fill-rule:nonzero;stroke:none"
         id="path268" /><path
         d="m 16388.5,2338.9 c 0,0 416.4,803.2 1420.5,1126.5 0,0 -197.8,-927.7 -1420.5,-1126.5"
         style="fill:#00ccbe;fill-opacity:1;fill-rule:nonzero;stroke:none"
         id="path270" /><path
         d="m 12937.2,7081.83 c -1.4,-68.5 4.8,-221.7 70.7,-404.44 79.9,-221.59 266.4,-531.99 700.7,-770.39 -37,161.9 -204.6,744.19 -771.4,1174.83 z m 794,-1234.63 c -0.8,0.3 -1.7,0.7 -2.5,1.1 -476.3,247.8 -677.2,581.1 -761.9,817.03 -92,256.36 -71.1,451.5 -70.1,459.68 0.8,7.51 5.7,13.98 12.7,17 7,3.01 15.1,2.1 21.3,-2.39 367.8,-268.62 573.6,-599.12 681.4,-829.02 117,-249.4 146.5,-432.7 147.7,-440.4 1.2,-7.9 -2.2,-15.8 -8.7,-20.4 -5.8,-4.1 -13.3,-5 -19.9,-2.6"
         style="fill:#00ccbe;fill-opacity:1;fill-rule:nonzero;stroke:none"
         id="path272" /><path
         d="m 13291.7,7186.12 c 0,0 965.4,-423.9 509,-1407.42 0,0 -371.7,916.93 -368.6,928.52 3.2,11.59 -140.4,478.9 -140.4,478.9"
         style="fill:#000061;fill-opacity:1;fill-rule:nonzero;stroke:none"
         id="path274" /><path
         d="m 13800.7,5778.7 c 0,0 58.6,747.3 -509,1407.42 0,0 -267.7,-741.52 509,-1407.42"
         style="fill:#00ccbe;fill-opacity:1;fill-rule:nonzero;stroke:none"
         id="path276" /><path
         d="m 12983.9,3951 h -445 v 3415.04 h 90 V 4041 h 355 v -90"
         style="fill:#000061;fill-opacity:1;fill-rule:nonzero;stroke:none"
         id="path278" /><path
         d="m 21193.1,3922.5 h -445 v 3414.96 h 90 V 4012.5 h 355 v -90"
         style="fill:#000061;fill-opacity:1;fill-rule:nonzero;stroke:none"
         id="path280" /><path
         d="m 17399.7,4328.1 -89.8,6.4 c 41.7,592.6 -3.4,1117.7 -134,1560.7 -104,352.8 -262.3,654.6 -470.3,896.92 -353.8,412.18 -735,511.32 -738.9,512.27 l 21.7,87.37 c 16.5,-4.09 408.7,-104.85 781.2,-536.05 217.6,-251.81 382.8,-564.81 491.2,-930.31 134.8,-454.4 181.5,-991.7 138.9,-1597.3"
         style="fill:#000061;fill-opacity:1;fill-rule:nonzero;stroke:none"
         id="path282" /><path
         d="m 20097.3,2606.1 h -50 v 714.8 h -617.6 v 50 h 667.6 v -764.8"
         style="fill:#ff5776;fill-opacity:1;fill-rule:nonzero;stroke:none"
         id="path284" /><path
         d="m 19170.7,3320.9 h -457.2 v 50 h 457.2 v -50"
         style="fill:#ff5776;fill-opacity:1;fill-rule:nonzero;stroke:none"
         id="path286" /><path
         d="m 11904.5,2545.4 h -50 v 775.5 H 11255 v 50 h 649.5 v -825.5"
         style="fill:#ff5776;fill-opacity:1;fill-rule:nonzero;stroke:none"
         id="path288" /><path
         d="m 11007.4,3320.9 h -486.7 v 50 h 486.7 v -50"
         style="fill:#ff5776;fill-opacity:1;fill-rule:nonzero;stroke:none"
         id="path290" /></g></g></svg>
